<?xml version="1.0" encoding="utf-8"?>
<!-- Generator: Adobe Illustrator 17.0.0, SVG Export Plug-In . SVG Version: 6.00 Build 0)  -->
<!DOCTYPE svg PUBLIC "-//W3C//DTD SVG 1.1//EN" "http://www.w3.org/Graphics/SVG/1.1/DTD/svg11.dtd">
<svg version="1.1" id="图层_1" xmlns="http://www.w3.org/2000/svg" xmlns:xlink="http://www.w3.org/1999/xlink" x="0px" y="0px"
	 width="16px" height="16px" viewBox="0 0 16 16" enable-background="new 0 0 16 16" xml:space="preserve">
<g>
	<path fill="#272635" d="M8,0.1C3.6,0.1,0.1,3.6,0.1,8c0,4.4,3.6,7.9,7.9,7.9c4.4,0,7.9-3.6,7.9-7.9C15.9,3.6,12.4,0.1,8,0.1L8,0.1
		L8,0.1L8,0.1z M9.3,2.7L9,10.2H7L6.7,2.7H9.3L9.3,2.7L9.3,2.7z M8,13.8c-0.8,0-1.3-0.6-1.3-1.3c0-0.8,0.6-1.3,1.3-1.3
		c0.8,0,1.3,0.6,1.3,1.3C9.3,13.2,8.8,13.8,8,13.8L8,13.8L8,13.8L8,13.8z M8,13.8"/>
</g>
</svg>
