<?xml version="1.0" encoding="utf-8"?>
<!-- Generator: Adobe Illustrator 17.0.0, SVG Export Plug-In . SVG Version: 6.00 Build 0)  -->
<!DOCTYPE svg PUBLIC "-//W3C//DTD SVG 1.1//EN" "http://www.w3.org/Graphics/SVG/1.1/DTD/svg11.dtd">
<svg version="1.1" id="图层_1" xmlns="http://www.w3.org/2000/svg" xmlns:xlink="http://www.w3.org/1999/xlink" x="0px" y="0px"
	 width="16px" height="16px" viewBox="0 0 16 16" enable-background="new 0 0 16 16" xml:space="preserve">
<g>
	<path fill="#272635" d="M4,4.4H12c0-0.9-0.6-2-1.6-2.7l0.8-0.9c0.1-0.1,0.1-0.4,0-0.5c-0.1-0.1-0.4-0.1-0.5,0L9.8,1.3
		C9.3,1,8.7,0.8,8,0.8C7.4,0.8,6.8,1,6.2,1.3l-1-1c-0.1-0.1-0.4-0.1-0.5,0c-0.1,0.1-0.1,0.4,0,0.5l0.9,0.9C4.6,2.4,4,3.4,4,4.4
		L4,4.4z M9.8,2.3c0.3,0,0.5,0.2,0.5,0.5c0,0.3-0.2,0.5-0.5,0.5C9.6,3.2,9.3,3,9.3,2.8C9.3,2.5,9.6,2.3,9.8,2.3L9.8,2.3z M6.7,2.8
		c0,0.3-0.2,0.5-0.5,0.5C6,3.2,5.8,3,5.8,2.8c0-0.3,0.2-0.5,0.5-0.5C6.5,2.3,6.7,2.5,6.7,2.8L6.7,2.8z M6.7,2.8"/>
	<path fill="#272635" d="M2.7,10.5H2.5c-0.3,0-0.5-0.2-0.5-0.5V5.7c0-0.3,0.2-0.5,0.5-0.5h0.3c0.3,0,0.5,0.2,0.5,0.5V10
		C3.3,10.3,3,10.5,2.7,10.5L2.7,10.5z M2.7,10.5"/>
	<path fill="#272635" d="M13.5,10.5h-0.3c-0.3,0-0.5-0.2-0.5-0.5V5.7c0-0.3,0.2-0.5,0.5-0.5h0.3c0.3,0,0.5,0.2,0.5,0.5V10
		C14.1,10.3,13.8,10.5,13.5,10.5L13.5,10.5z M13.5,10.5"/>
	<path fill="#272635" d="M12,5.1H4v8h1.4v2.2c0,0.3,0.2,0.5,0.5,0.5h0.3c0.3,0,0.5-0.2,0.5-0.5v-2.2h2.6v2.2c0,0.3,0.2,0.5,0.5,0.5
		h0.3c0.3,0,0.5-0.2,0.5-0.5v-2.2H12V5.1L12,5.1z M12,5.1"/>
</g>
</svg>
