<?xml version="1.0" encoding="utf-8"?>
<!-- Generator: Adobe Illustrator 17.0.0, SVG Export Plug-In . SVG Version: 6.00 Build 0)  -->
<!DOCTYPE svg PUBLIC "-//W3C//DTD SVG 1.1//EN" "http://www.w3.org/Graphics/SVG/1.1/DTD/svg11.dtd">
<svg version="1.1" id="图层_1" xmlns="http://www.w3.org/2000/svg" xmlns:xlink="http://www.w3.org/1999/xlink" x="0px" y="0px"
	 width="16px" height="16px" viewBox="0 0 16 16" enable-background="new 0 0 16 16" xml:space="preserve">
<g>
	<path fill="#272635" d="M4.8,13.4h1.8c0.1,0,0.3-0.1,0.3-0.3v-2.2c0-0.1,0-0.3-0.3-0.3H4.8c-0.1,0-0.3,0.1-0.3,0.3v2.2
		C4.6,13.3,4.7,13.4,4.8,13.4L4.8,13.4L4.8,13.4z M9.3,0.1H2.2c-0.4,0-0.8,0.4-0.8,0.8v14.3c0,0.4,0.4,0.8,0.8,0.8h7.1
		c0.4,0,0.8-0.4,0.8-0.8V0.9C10.1,0.5,9.7,0.1,9.3,0.1L9.3,0.1L9.3,0.1z M8.8,14.6H2.7V1.4h6.1V14.6L8.8,14.6L8.8,14.6z M13.8,3.5
		h-2.2c-0.4,0-0.8,0.4-0.8,0.8v10.8c0,0.4,0.4,0.8,0.8,0.8h2.2c0.4,0,0.8-0.4,0.8-0.8V4.3C14.6,3.9,14.2,3.5,13.8,3.5L13.8,3.5
		L13.8,3.5z M13.3,14.6h-1.2V4.8h1.2V14.6L13.3,14.6L13.3,14.6z M13.3,14.6"/>
</g>
</svg>
