<?xml version="1.0" encoding="utf-8"?>
<!-- Generator: Adobe Illustrator 17.0.0, SVG Export Plug-In . SVG Version: 6.00 Build 0)  -->
<!DOCTYPE svg PUBLIC "-//W3C//DTD SVG 1.1//EN" "http://www.w3.org/Graphics/SVG/1.1/DTD/svg11.dtd">
<svg version="1.1" id="图层_1" xmlns="http://www.w3.org/2000/svg" xmlns:xlink="http://www.w3.org/1999/xlink" x="0px" y="0px"
	 width="16px" height="16px" viewBox="0 0 16 16" enable-background="new 0 0 16 16" xml:space="preserve">
<g>
	<path fill="#070001" d="M12.2,8.7c0-2,1.6-2.9,1.7-2.9c-0.9-1.3-2.3-1.5-2.8-1.5c-1.2-0.1-2.4,0.7-3,0.7c-0.6,0-1.6-0.7-2.6-0.7
		C4.2,4.3,3,5,2.3,6.2C1,8.6,2,12.1,3.3,14c0.7,0.9,1.4,2,2.4,2c1,0,1.3-0.6,2.5-0.6c1.2,0,1.5,0.6,2.6,0.6c1.1,0,1.7-1,2.4-1.9
		c0.7-1.1,1.1-2.2,1.1-2.2C14.3,11.8,12.2,11,12.2,8.7z"/>
	<path fill="#070001" d="M11.5,0.1c-0.8,0-1.7,0.5-2.3,1.2C8.7,1.8,8.3,2.7,8.4,3.6c0.9,0.1,1.8-0.4,2.3-1.1
		C11.2,1.9,11.6,1,11.5,0.1z"/>
</g>
</svg>
