<?xml version="1.0" encoding="utf-8"?>
<!-- Generator: Adobe Illustrator 17.0.0, SVG Export Plug-In . SVG Version: 6.00 Build 0)  -->
<!DOCTYPE svg PUBLIC "-//W3C//DTD SVG 1.1//EN" "http://www.w3.org/Graphics/SVG/1.1/DTD/svg11.dtd">
<svg version="1.1" id="图层_1" xmlns="http://www.w3.org/2000/svg" xmlns:xlink="http://www.w3.org/1999/xlink" x="0px" y="0px"
	 width="16px" height="16px" viewBox="0 0 16 16" enable-background="new 0 0 16 16" xml:space="preserve">
<g>
	<path fill="#272635" d="M11.9,4.2c0-2.3-1.7-4.1-3.9-4.1c-2.2,0-3.9,1.8-3.9,4.1c0,2.3,3.9,7.2,3.9,7.2S11.9,6.5,11.9,4.2z
		 M6.1,3.6c0-1.1,0.8-1.9,1.9-1.9c1.1,0,1.9,0.8,1.9,1.9c0,1.1-0.8,1.9-1.9,1.9C6.9,5.6,6.1,4.7,6.1,3.6z"/>
	<path fill="#272635" d="M15,6.7h-1.9c-0.4,0-0.6,0.2-0.6,0.6c0,0.4,0.2,0.6,0.6,0.6h1.3v6.6H1.7V8H3c0.4,0,0.6-0.2,0.6-0.6
		C3.6,7,3.4,6.8,3,6.8H1C0.6,6.8,0.4,7,0.4,7.4v7.9c0,0.4,0.2,0.6,0.6,0.6H15c0.4,0,0.6-0.2,0.6-0.6v-8C15.6,6.9,15.4,6.7,15,6.7z"
		/>
</g>
</svg>
