<?xml version="1.0" encoding="utf-8"?>
<!-- Generator: Adobe Illustrator 17.0.0, SVG Export Plug-In . SVG Version: 6.00 Build 0)  -->
<!DOCTYPE svg PUBLIC "-//W3C//DTD SVG 1.1//EN" "http://www.w3.org/Graphics/SVG/1.1/DTD/svg11.dtd">
<svg version="1.1" id="图层_1" xmlns="http://www.w3.org/2000/svg" xmlns:xlink="http://www.w3.org/1999/xlink" x="0px" y="0px"
	 width="16px" height="16px" viewBox="0 0 16 16" enable-background="new 0 0 16 16" xml:space="preserve">
<g>
	<path fill="#272635" d="M0.8,7.3C0.4,7.3,0.1,7.6,0.1,8c0,0.4,0.3,0.7,0.7,0.7h12.7l-5.8,5.8c-0.3,0.3-0.3,0.7,0,1
		c0.1,0.1,0.3,0.2,0.5,0.2c0.2,0,0.4-0.1,0.5-0.2l7-7c0.3-0.3,0.3-0.7,0-1l-7-7c-0.3-0.3-0.7-0.3-1,0c-0.3,0.3-0.3,0.7,0,1l5.8,5.8
		H0.8L0.8,7.3z M0.8,7.3"/>
</g>
</svg>
