<?xml version="1.0" encoding="utf-8"?>
<!-- Generator: Adobe Illustrator 17.0.0, SVG Export Plug-In . SVG Version: 6.00 Build 0)  -->
<!DOCTYPE svg PUBLIC "-//W3C//DTD SVG 1.1//EN" "http://www.w3.org/Graphics/SVG/1.1/DTD/svg11.dtd">
<svg version="1.1" id="图层_1" xmlns="http://www.w3.org/2000/svg" xmlns:xlink="http://www.w3.org/1999/xlink" x="0px" y="0px"
	 width="16px" height="16px" viewBox="0 0 16 16" enable-background="new 0 0 16 16" xml:space="preserve">
<g>
	<path fill="#272635" d="M14.2,9.7c-0.9,0-1.7-0.7-1.7-1.7s0.7-1.7,1.7-1.7c0.9,0,1.7,0.7,1.7,1.7S15.2,9.7,14.2,9.7L14.2,9.7z
		 M7.9,9.7C7,9.7,6.2,9,6.2,8s0.7-1.7,1.7-1.7c1,0,1.7,0.7,1.7,1.7C9.6,8.9,8.9,9.7,7.9,9.7L7.9,9.7z M1.8,9.7c-1,0-1.7-0.8-1.7-1.7
		c0-0.9,0.7-1.7,1.7-1.7c1,0,1.7,0.7,1.7,1.7S2.7,9.7,1.8,9.7L1.8,9.7z M1.8,9.7"/>
</g>
</svg>
