<?xml version="1.0" encoding="utf-8"?>
<!-- Generator: Adobe Illustrator 17.0.0, SVG Export Plug-In . SVG Version: 6.00 Build 0)  -->
<!DOCTYPE svg PUBLIC "-//W3C//DTD SVG 1.1//EN" "http://www.w3.org/Graphics/SVG/1.1/DTD/svg11.dtd">
<svg version="1.1" id="图层_1" xmlns="http://www.w3.org/2000/svg" xmlns:xlink="http://www.w3.org/1999/xlink" x="0px" y="0px"
	 width="16px" height="16px" viewBox="0 0 16 16" enable-background="new 0 0 16 16" xml:space="preserve">
<g id="Page-1_60_" sketch:type="MSPage">
	<g id="tabbar_ic_2_" transform="translate(-180.000000, -8.000000)" sketch:type="MSArtboardGroup">
		<g id="tabbar_account_1_" transform="translate(177.000000, 6.000000)" sketch:type="MSLayerGroup">
			<path id="Fill-1_15_" sketch:type="MSShapeGroup" fill="#1A1918" d="M11.002,8.452c1.778,0,3.223-1.445,3.223-3.223
				c0-1.783-1.445-3.223-3.223-3.223c-1.783,0-3.223,1.44-3.223,3.223C7.779,7.007,9.219,8.452,11.002,8.452z M11.002,9.76
				c-3.493,0-6.378,2.787-6.834,6.599c0,0,2.425,1.636,6.834,1.636c4.404,0,6.829-1.636,6.829-1.636
				C17.376,12.547,14.49,9.76,11.002,9.76z"/>
		</g>
	</g>
</g>
</svg>
