<?xml version="1.0" encoding="utf-8"?>
<!-- Generator: Adobe Illustrator 17.0.0, SVG Export Plug-In . SVG Version: 6.00 Build 0)  -->
<!DOCTYPE svg PUBLIC "-//W3C//DTD SVG 1.1//EN" "http://www.w3.org/Graphics/SVG/1.1/DTD/svg11.dtd">
<svg version="1.1" id="图层_1" xmlns="http://www.w3.org/2000/svg" xmlns:xlink="http://www.w3.org/1999/xlink" x="0px" y="0px"
	 width="16px" height="16px" viewBox="0 0 16 16" enable-background="new 0 0 16 16" xml:space="preserve">
<g>
	<path fill="#272636" d="M14.178,10.177c-1.496-1.232-1.492-4.856-1.492-4.895c0-2.741-2.289-3.808-2.975-4.067
		C9.495,0.504,8.808,0.005,8.007,0.005c-0.797,0-1.482,0.495-1.701,1.202C3.345,2.263,3.315,5.253,3.315,5.282
		c0,3.771-1.414,4.867-1.447,4.89c-0.92,0.766-0.965,1.833-0.965,1.929C1.078,13.32,1.9,13.753,2.61,13.753l10.683-0.003
		c0.542,0,0.979-0.153,1.297-0.457c0.51-0.485,0.507-1.173,0.507-1.196C15.097,10.863,14.2,10.194,14.178,10.177L14.178,10.177z
		 M6.003,14.367c0.236,0.953,1.017,1.628,1.973,1.628c0.958,0,1.788-0.678,2.022-1.635L6.003,14.367L6.003,14.367z M6.003,14.367"/>
</g>
</svg>
