<?xml version="1.0" encoding="utf-8"?>
<!-- Generator: Adobe Illustrator 17.0.0, SVG Export Plug-In . SVG Version: 6.00 Build 0)  -->
<!DOCTYPE svg PUBLIC "-//W3C//DTD SVG 1.1//EN" "http://www.w3.org/Graphics/SVG/1.1/DTD/svg11.dtd">
<svg version="1.1" id="图层_1" xmlns="http://www.w3.org/2000/svg" xmlns:xlink="http://www.w3.org/1999/xlink" x="0px" y="0px"
	 width="16px" height="16px" viewBox="0 0 16 16" enable-background="new 0 0 16 16" xml:space="preserve">
<g>
	<path fill="#272635" d="M13.6,0.1H2.4c-1.3,0-2.3,1-2.3,2.3v13.6h1.1l2.4-1.7l2.2,1.7L8,14.1l2.3,1.7l2.3-1.7l2.4,1.7h1V2.4
		C15.9,1.1,14.9,0.1,13.6,0.1L13.6,0.1z M11.7,6.3v1.5H8.8v1.5h2.9v1.5H8.8v1.5H7.3v-1.5H4.4V9.3h2.9V7.8H4.4V6.3h1.5L4.4,2.6h1.5
		l1.5,3.8h1.5l1.5-3.8h1.5l-1.5,3.8H11.7L11.7,6.3z M11.7,6.3"/>
</g>
</svg>
