<?xml version="1.0" encoding="utf-8"?>
<!-- Generator: Adobe Illustrator 17.0.0, SVG Export Plug-In . SVG Version: 6.00 Build 0)  -->
<!DOCTYPE svg PUBLIC "-//W3C//DTD SVG 1.1//EN" "http://www.w3.org/Graphics/SVG/1.1/DTD/svg11.dtd">
<svg version="1.1" id="图层_1" xmlns="http://www.w3.org/2000/svg" xmlns:xlink="http://www.w3.org/1999/xlink" x="0px" y="0px"
	 width="16px" height="16px" viewBox="0 0 16 16" enable-background="new 0 0 16 16" xml:space="preserve">
<path fill="#272636" d="M14.803,0.055H1.097c-0.596,0-1.092,0.497-1.092,1.092v13.805c0,0.497,0.497,0.993,1.092,0.993h13.805
	c0.596,0,1.092-0.497,1.092-1.092V1.147C15.896,0.551,15.399,0.055,14.803,0.055z M14.903,14.853
	C14.903,14.952,14.903,14.952,14.903,14.853L1.097,14.952c-0.099,0-0.099,0-0.099-0.099V1.147c0-0.099,0-0.099,0.099-0.099h13.805
	c0,0,0,0,0,0.099V14.853z"/>
</svg>
