<?xml version="1.0" encoding="utf-8"?>
<!-- Generator: Adobe Illustrator 17.0.0, SVG Export Plug-In . SVG Version: 6.00 Build 0)  -->
<!DOCTYPE svg PUBLIC "-//W3C//DTD SVG 1.1//EN" "http://www.w3.org/Graphics/SVG/1.1/DTD/svg11.dtd">
<svg version="1.1" id="图层_1" xmlns="http://www.w3.org/2000/svg" xmlns:xlink="http://www.w3.org/1999/xlink" x="0px" y="0px"
	 width="16px" height="16px" viewBox="0 0 16 16" enable-background="new 0 0 16 16" xml:space="preserve">
<g>
	<path fill="#272636" d="M2.068,14.157c1.301,1.201,2.702,2.201,4.002,1.701c1.301-0.5,4.002-2.902,5.603-5.603
		c1.601-2.701,2.501-6.103,2.401-7.504c-0.1-1.301-1.701-2.101-3.402-2.702c-0.2-0.1-0.5,0-0.7,0.2v0.1l0,0L8.572,3.951l0,0
		c-0.1,0.2,0,0.5,0.2,0.6h0.1l0,0l0,0c0.3,0.1,0.4,0.1,0.7,0.2c0.4,0.1,1.001,0.3,1.801,0.4c0.1,0.901-0.3,2.301-1.401,4.002
		c-1.001,1.701-2.101,2.702-2.902,3.102c-0.4-0.6-0.8-1.101-1.101-1.401l-0.5-0.5l0,0l0,0h-0.1c-0.2-0.1-0.5-0.1-0.7,0.1l0,0
		l-2.501,2.902l0,0l-0.1,0.1C1.868,13.657,1.868,13.957,2.068,14.157"/>
</g>
</svg>
