<?xml version="1.0" encoding="utf-8"?>
<!-- Generator: Adobe Illustrator 17.0.0, SVG Export Plug-In . SVG Version: 6.00 Build 0)  -->
<!DOCTYPE svg PUBLIC "-//W3C//DTD SVG 1.1//EN" "http://www.w3.org/Graphics/SVG/1.1/DTD/svg11.dtd">
<svg version="1.1" id="图层_1" xmlns="http://www.w3.org/2000/svg" xmlns:xlink="http://www.w3.org/1999/xlink" x="0px" y="0px"
	 width="16px" height="16px" viewBox="0 0 16 16" enable-background="new 0 0 16 16" xml:space="preserve">
<path fill="#272636" d="M11.298,4.702c-0.26-0.26-0.691-0.252-0.946,0.004L8,7.058L5.648,4.706C5.393,4.45,4.962,4.442,4.702,4.702
	C4.449,4.955,4.443,5.386,4.705,5.648L7.058,8l-2.352,2.352c-0.263,0.263-0.256,0.693-0.003,0.946
	c0.259,0.26,0.689,0.252,0.944-0.004L8,8.942l2.352,2.352c0.256,0.256,0.687,0.264,0.946,0.004c0.253-0.253,0.259-0.684-0.003-0.946
	L8.942,8l2.352-2.352C11.557,5.386,11.55,4.955,11.298,4.702z"/>
<path fill="#272636" d="M8,0.005C3.584,0.005,0.005,3.584,0.005,8S3.584,15.995,8,15.995S15.995,12.416,15.995,8
	S12.416,0.005,8,0.005z M8,15.195c-3.974,0-7.195-3.222-7.195-7.195S4.026,0.804,8,0.804S15.195,4.026,15.195,8
	S11.974,15.195,8,15.195z"/>
</svg>
