<?xml version="1.0" encoding="utf-8"?>
<!-- Generator: Adobe Illustrator 17.0.0, SVG Export Plug-In . SVG Version: 6.00 Build 0)  -->
<!DOCTYPE svg PUBLIC "-//W3C//DTD SVG 1.1//EN" "http://www.w3.org/Graphics/SVG/1.1/DTD/svg11.dtd">
<svg version="1.1" id="图层_1" xmlns="http://www.w3.org/2000/svg" xmlns:xlink="http://www.w3.org/1999/xlink" x="0px" y="0px"
	 width="16px" height="16px" viewBox="0 0 16 16" enable-background="new 0 0 16 16" xml:space="preserve">
<g>
	<path fill="#272635" d="M15.3,2H3.9C3.8,1.5,3.8,0.6,3.1,0.6H0.7c-0.3,0-0.6,0.3-0.6,0.7C0.1,1.7,0.4,2,0.7,2h1.9l1.7,8.8
		c-0.1,0.3-0.6,1.1-0.6,1.5C3.7,12.6,4,13,4.4,13h10.3c0.3,0,0.6-0.3,0.6-0.7c0-0.4-0.3-0.7-0.6-0.7H5.3c0.1-0.2,0.2-0.4,0.2-0.7
		c0-0.2-0.1-0.5-0.1-0.8l9.9-1.3c0.3,0,0.5-0.3,0.5-0.7V2.7C15.9,2.3,15.6,2,15.3,2L15.3,2z M12.3,14.2c0,0.7,0.5,1.2,1.2,1.2
		c0.7,0,1.2-0.5,1.2-1.2c0-0.7-0.5-1.2-1.2-1.2C12.8,13,12.3,13.5,12.3,14.2L12.3,14.2z M3.7,14.2c0,0.7,0.5,1.2,1.2,1.2
		s1.2-0.5,1.2-1.2C6.2,13.5,5.6,13,5,13S3.7,13.5,3.7,14.2L3.7,14.2z M3.7,14.2"/>
</g>
</svg>
