<?xml version="1.0" encoding="utf-8"?>
<!-- Generator: Adobe Illustrator 17.0.0, SVG Export Plug-In . SVG Version: 6.00 Build 0)  -->
<!DOCTYPE svg PUBLIC "-//W3C//DTD SVG 1.1//EN" "http://www.w3.org/Graphics/SVG/1.1/DTD/svg11.dtd">
<svg version="1.1" id="图层_1" xmlns="http://www.w3.org/2000/svg" xmlns:xlink="http://www.w3.org/1999/xlink" x="0px" y="0px"
	 width="16px" height="16px" viewBox="0 0 16 16" enable-background="new 0 0 16 16" xml:space="preserve">
<g>
	<path fill="#272635" d="M11.9,4.9l-5.3,5.3L4.2,7.6C4,7.4,3.7,7.4,3.5,7.6c-0.2,0.2-0.2,0.5,0,0.7l2.8,2.9c0.1,0.1,0.2,0.2,0.4,0.2
		h0c0.1,0,0.3-0.1,0.3-0.1l5.7-5.7c0.2-0.2,0.2-0.5,0-0.7C12.4,4.7,12,4.7,11.9,4.9L11.9,4.9z M14.8,0.1H1.2c-0.6,0-1.1,0.5-1.1,1.1
		v13.7c0,0.6,0.5,1,1.1,1h13.7c0.6,0,1-0.5,1-1.1V1.2C15.9,0.6,15.4,0.1,14.8,0.1L14.8,0.1z M14.9,14.8
		C14.9,14.9,14.9,14.9,14.9,14.8L1.2,14.9c0,0-0.1,0-0.1-0.1V1.2c0,0,0-0.1,0.1-0.1h13.7c0,0,0.1,0,0.1,0.1V14.8L14.9,14.8z
		 M14.9,14.8"/>
</g>
</svg>
