<?xml version="1.0" encoding="utf-8"?>
<!-- Generator: Adobe Illustrator 17.0.0, SVG Export Plug-In . SVG Version: 6.00 Build 0)  -->
<!DOCTYPE svg PUBLIC "-//W3C//DTD SVG 1.1//EN" "http://www.w3.org/Graphics/SVG/1.1/DTD/svg11.dtd">
<svg version="1.1" id="图层_1" xmlns="http://www.w3.org/2000/svg" xmlns:xlink="http://www.w3.org/1999/xlink" x="0px" y="0px"
	 width="16px" height="16px" viewBox="0 0 16 16" enable-background="new 0 0 16 16" xml:space="preserve">
<g>
	<path fill="#272636" d="M8,0.005C3.603,0.005,0.005,3.603,0.005,8c0,4.397,3.598,7.995,7.995,7.995
		c4.397,0,7.995-3.598,7.995-7.995C15.995,3.603,12.397,0.005,8,0.005L8,0.005z M12.797,6.001l-5.596,5.597
		c-0.1,0.1-0.3,0.2-0.5,0.2c-0.2,0.1-0.4-0.1-0.5-0.2L3.303,8.7c-0.3-0.3-0.2-0.7,0-0.999c0.3-0.3,0.7-0.3,0.999,0l2.398,2.399
		l5.097-5.097c0.3-0.3,0.7-0.3,0.999,0C13.097,5.302,13.097,5.701,12.797,6.001L12.797,6.001z M12.797,6.001"/>
</g>
</svg>
