<?xml version="1.0" encoding="utf-8"?>
<!-- Generator: Adobe Illustrator 17.0.0, SVG Export Plug-In . SVG Version: 6.00 Build 0)  -->
<!DOCTYPE svg PUBLIC "-//W3C//DTD SVG 1.1//EN" "http://www.w3.org/Graphics/SVG/1.1/DTD/svg11.dtd">
<svg version="1.1" id="图层_1" xmlns="http://www.w3.org/2000/svg" xmlns:xlink="http://www.w3.org/1999/xlink" x="0px" y="0px"
	 width="16px" height="16px" viewBox="0 0 16 16" enable-background="new 0 0 16 16" xml:space="preserve">
<path d="M0,16h16V0L0,16z M15,9.4l-5.2,5.2c-0.1,0.1-0.2,0.1-0.3,0.1c-0.1,0-0.2-0.1-0.3-0.1c0,0,0,0,0,0L6.5,12l0,0
	c-0.1-0.1-0.2-0.2-0.2-0.3c0-0.3,0.2-0.5,0.5-0.5c0.1,0,0.3,0.1,0.3,0.2l0,0l2.3,2.3l4.9-4.9l0,0c0.1-0.1,0.2-0.1,0.3-0.1
	c0.3,0,0.5,0.2,0.5,0.5C15.1,9.2,15.1,9.3,15,9.4z"/>
</svg>
