<?xml version="1.0" encoding="utf-8"?>
<!-- Generator: Adobe Illustrator 17.0.0, SVG Export Plug-In . SVG Version: 6.00 Build 0)  -->
<!DOCTYPE svg PUBLIC "-//W3C//DTD SVG 1.1//EN" "http://www.w3.org/Graphics/SVG/1.1/DTD/svg11.dtd">
<svg version="1.1" id="图层_1" xmlns="http://www.w3.org/2000/svg" xmlns:xlink="http://www.w3.org/1999/xlink" x="0px" y="0px"
	 width="16px" height="16px" viewBox="0 0 16 16" enable-background="new 0 0 16 16" xml:space="preserve">
<g>
	<path fill="#272636" d="M8,0.005C3.603,0.005,0.005,3.603,0.005,8c0,4.397,3.598,7.995,7.995,7.995
		c4.397,0,7.995-3.598,7.995-7.995C15.995,3.603,12.397,0.005,8,0.005L8,0.005z M11.798,10.798c0.3,0.3,0.3,0.7,0,0.999
		c-0.1,0.1-0.3,0.2-0.5,0.2c-0.2,0-0.3-0.1-0.5-0.2L8,8.999l-2.798,2.798c-0.2,0.1-0.3,0.2-0.5,0.2c-0.2,0-0.3-0.1-0.5-0.2
		c-0.3-0.3-0.3-0.7,0-0.999L7.001,8L4.202,5.202c-0.3-0.3-0.3-0.7,0-0.999c0.3-0.3,0.7-0.3,0.999,0L8,7.001l2.798-2.798
		c0.3-0.3,0.7-0.3,0.999,0c0.3,0.3,0.3,0.7,0,0.999L8.999,8L11.798,10.798L11.798,10.798z M11.798,10.798"/>
</g>
</svg>
