<?xml version="1.0" encoding="utf-8"?>
<!-- Generator: Adobe Illustrator 17.0.0, SVG Export Plug-In . SVG Version: 6.00 Build 0)  -->
<!DOCTYPE svg PUBLIC "-//W3C//DTD SVG 1.1//EN" "http://www.w3.org/Graphics/SVG/1.1/DTD/svg11.dtd">
<svg version="1.1" id="图层_1" xmlns="http://www.w3.org/2000/svg" xmlns:xlink="http://www.w3.org/1999/xlink" x="0px" y="0px"
	 width="16px" height="16px" viewBox="0 0 16 16" enable-background="new 0 0 16 16" xml:space="preserve">
<path fill="#272635" d="M7.2,3"/>
<path fill="#272635" d="M11.9,6.2c-0.3-0.9-1.3-1.5-2.2-1.5C9,4.7,8.4,5,8,5.4c-0.4-0.5-1-0.7-1.7-0.7c-0.9,0-1.8,0.6-2.1,1.4
	C4,6.4,4,6.8,4,7.3c0.1,1.3,1.4,2.7,3.7,4c0,0,0.1,0,0.2,0.1c0,0,0,0,0.1,0c0.1,0,0.1,0,0.2,0c0.1,0,3.5-1.7,3.7-4.1
	C12,6.8,12,6.4,11.9,6.2z"/>
</svg>
