<?xml version="1.0" encoding="utf-8"?>
<!-- Generator: Adobe Illustrator 17.0.0, SVG Export Plug-In . SVG Version: 6.00 Build 0)  -->
<!DOCTYPE svg PUBLIC "-//W3C//DTD SVG 1.1//EN" "http://www.w3.org/Graphics/SVG/1.1/DTD/svg11.dtd">
<svg version="1.1" id="图层_1" xmlns="http://www.w3.org/2000/svg" xmlns:xlink="http://www.w3.org/1999/xlink" x="0px" y="0px"
	 width="16px" height="16px" viewBox="0 0 16 16" enable-background="new 0 0 16 16" xml:space="preserve">
<path fill="#272635" d="M7.2,3"/>
<path fill="#272635" d="M11.9,6.1c-0.4-0.9-1.2-1.5-2.2-1.5C9.1,4.6,8.5,4.9,8,5.4C7.6,4.9,6.9,4.6,6.3,4.6c-1,0-1.8,0.6-2.2,1.5
	C4,6.4,4,6.8,4,7.2c0.1,1.4,1.4,2.8,3.7,4c0.1,0.1,0.2,0.1,0.3,0.1s0.2,0,0.3-0.1c0.1-0.1,3.5-1.8,3.7-4C12,6.8,12,6.4,11.9,6.1z
	 M11.5,7.2c-0.2,2-3.4,3.6-3.5,3.6H7.9C5.8,9.7,4.6,8.5,4.5,7.2c-0.1-0.4,0-0.7,0.1-1c0.3-0.7,0.9-1.2,1.7-1.2
	c0.6,0,1.2,0.3,1.5,0.8L8,6.3L8.2,6c0.3-0.5,0.9-0.8,1.5-0.8c0.8,0,1.4,0.5,1.7,1.2C11.5,6.5,11.5,6.8,11.5,7.2z"/>
</svg>
