<?xml version="1.0" encoding="utf-8"?>
<!-- Generator: Adobe Illustrator 17.0.0, SVG Export Plug-In . SVG Version: 6.00 Build 0)  -->
<!DOCTYPE svg PUBLIC "-//W3C//DTD SVG 1.1//EN" "http://www.w3.org/Graphics/SVG/1.1/DTD/svg11.dtd">
<svg version="1.1" id="图层_1" xmlns="http://www.w3.org/2000/svg" xmlns:xlink="http://www.w3.org/1999/xlink" x="0px" y="0px"
	 width="16px" height="16px" viewBox="0 0 16 16" enable-background="new 0 0 16 16" xml:space="preserve">
<path d="M6,10c0.4-0.6,1.2-1,2-1c0.5,0,1.1,0.1,1.5,0.4C9.7,9.6,9.9,9.8,10,10c0.1,0.1,0.2,0.2,0.4,0.2c0.2,0,0.4-0.2,0.4-0.4
	c0-0.1,0-0.2-0.1-0.3C10,8.6,9.1,8.1,8,8.1S6,8.6,5.3,9.4C5.2,9.5,5.2,9.6,5.2,9.7c0,0.3,0.2,0.5,0.4,0.5C5.8,10.2,5.9,10.1,6,10z
	 M10.4,5.6c0.1,0.1,0.2,0.2,0.4,0.2c0.3,0,0.6-0.3,0.6-0.5c0-0.3-0.3-0.5-0.6-0.5c-0.3,0-0.6,0.3-0.6,0.5
	C10.2,5.4,10.3,5.5,10.4,5.6z M4.8,5.6C4.9,5.8,5,5.8,5.2,5.8c0.3,0,0.6-0.3,0.6-0.5c0-0.3-0.3-0.5-0.6-0.5S4.6,5,4.6,5.3
	C4.6,5.4,4.7,5.5,4.8,5.6z M15.1,11.2V1.6c0-0.3-0.2-0.5-0.6-0.5h-13c-0.4,0-0.6,0.2-0.6,0.5v10.1c0,0.4,0.1,0.7,0.3,0.8
	c0.2,0.1,0.3,0.1,0.8,0.1v1.8l3.8-1.8h7.9c0.5,0,0.9,0,1.1-0.1s0.3-0.2,0.4-0.3C15.1,12.1,15.1,11.7,15.1,11.2z M1.3,0.3h13.5
	c0.6,0,1.1,0.5,1.1,1.1v11c0,0.6-0.6,1.1-1.1,1.1L6,13.4l-4.8,2.2v-2.2c-0.6,0-1.1-0.5-1.1-1.1v-11C0.1,0.8,0.7,0.3,1.3,0.3z"/>
</svg>
