<?xml version="1.0" encoding="utf-8"?>
<!-- Generator: Adobe Illustrator 17.0.0, SVG Export Plug-In . SVG Version: 6.00 Build 0)  -->
<!DOCTYPE svg PUBLIC "-//W3C//DTD SVG 1.1//EN" "http://www.w3.org/Graphics/SVG/1.1/DTD/svg11.dtd">
<svg version="1.1" id="图层_1" xmlns="http://www.w3.org/2000/svg" xmlns:xlink="http://www.w3.org/1999/xlink" x="0px" y="0px"
	 width="16px" height="16px" viewBox="0 0 16 16" enable-background="new 0 0 16 16" xml:space="preserve">
<path fill="#272635" d="M8,0.1C3.7,0.1,0.1,3.7,0.1,8s3.5,7.9,7.9,7.9s7.9-3.5,7.9-7.9S12.3,0.1,8,0.1L8,0.1z M8,14.7
	c-3.6,0-6.7-2.9-6.7-6.7c0-3.6,2.9-6.7,6.7-6.7c3.6,0,6.7,2.9,6.7,6.7S11.6,14.7,8,14.7L8,14.7z M3.5,6.4c0-0.6,0.5-1.2,1.2-1.2
	s1.2,0.5,1.2,1.2S5.3,7.6,4.6,7.6S3.5,7,3.5,6.4L3.5,6.4z M10.4,6.4c0-0.4,0.2-0.8,0.6-1c0.4-0.2,0.8-0.2,1.2,0
	c0.4,0.2,0.6,0.6,0.6,1c0,0.4-0.2,0.8-0.6,1c-0.4,0.2-0.8,0.2-1.2,0C10.7,7.2,10.4,6.8,10.4,6.4L10.4,6.4z M5.7,13
	c0.6-0.5,1.4-0.7,2.3-0.7c0.9,0,1.6,0.3,2.3,0.7c0.3,0.2,0.6,0.1,0.8-0.1c0.2-0.3,0.1-0.6-0.1-0.8c-0.8-0.6-1.9-1-3-1s-2.1,0.4-3,1
	c-0.3,0.2-0.3,0.6-0.1,0.8C5.1,13.1,5.5,13.2,5.7,13L5.7,13z"/>
</svg>
