<?xml version="1.0" encoding="utf-8"?>
<!-- Generator: Adobe Illustrator 17.0.0, SVG Export Plug-In . SVG Version: 6.00 Build 0)  -->
<!DOCTYPE svg PUBLIC "-//W3C//DTD SVG 1.1//EN" "http://www.w3.org/Graphics/SVG/1.1/DTD/svg11.dtd">
<svg version="1.1" id="图层_1" xmlns="http://www.w3.org/2000/svg" xmlns:xlink="http://www.w3.org/1999/xlink" x="0px" y="0px"
	 width="16px" height="16px" viewBox="0 0 16 16" enable-background="new 0 0 16 16" xml:space="preserve">
<g>
	<path fill="#272635" d="M14.7,7.6L7.3,0.2C7,0,6.7,0,6.6,0.2c-0.2,0.2-0.2,0.5,0,0.7L13.8,8l-7.2,7.2c-0.2,0.2-0.2,0.4,0,0.6
		s0.5,0.1,0.7,0l7.4-7.4c0.1-0.1,0.2-0.3,0.2-0.4C14.8,7.8,14.8,7.7,14.7,7.6z"/>
	<path fill="#272635" d="M9.6,8c0-0.1-0.1-0.3-0.2-0.4L2,0.2C1.8,0,1.5,0,1.3,0.2s-0.2,0.5,0,0.7L8.5,8l-7.2,7.2
		c-0.2,0.2-0.2,0.4,0,0.6s0.6,0.2,0.7,0l7.4-7.4C9.5,8.3,9.6,8.1,9.6,8z"/>
</g>
</svg>
