<?xml version="1.0" encoding="utf-8"?>
<!-- Generator: Adobe Illustrator 17.0.0, SVG Export Plug-In . SVG Version: 6.00 Build 0)  -->
<!DOCTYPE svg PUBLIC "-//W3C//DTD SVG 1.1//EN" "http://www.w3.org/Graphics/SVG/1.1/DTD/svg11.dtd">
<svg version="1.1" id="图层_1" xmlns="http://www.w3.org/2000/svg" xmlns:xlink="http://www.w3.org/1999/xlink" x="0px" y="0px"
	 width="16px" height="16px" viewBox="0 0 16 16" enable-background="new 0 0 16 16" xml:space="preserve">
<path id="Shape-Copy" d="M3.8,6.9c1.1,2.5,2.9,4.5,5.1,5.8l1.7-1.9c0.2-0.2,0.5-0.3,0.8-0.2c0.9,0.3,1.8,0.5,2.8,0.5
	c0.4,0,0.8,0.4,0.8,0.9V15c0,0.5-0.3,0.9-0.8,0.9C6.9,15.9,1,9.2,1,1c0-0.5,0.3-0.9,0.8-0.9h2.7c0.4,0,0.8,0.4,0.8,0.9
	c0,1.1,0.2,2.1,0.4,3.1c0.1,0.3,0,0.6-0.2,0.9L3.8,6.9L3.8,6.9z"/>
</svg>
