<?xml version="1.0" encoding="utf-8"?>
<!-- Generator: Adobe Illustrator 17.0.0, SVG Export Plug-In . SVG Version: 6.00 Build 0)  -->
<!DOCTYPE svg PUBLIC "-//W3C//DTD SVG 1.1//EN" "http://www.w3.org/Graphics/SVG/1.1/DTD/svg11.dtd">
<svg version="1.1" id="图层_1" xmlns="http://www.w3.org/2000/svg" xmlns:xlink="http://www.w3.org/1999/xlink" x="0px" y="0px"
	 width="16px" height="16px" viewBox="0 0 16 16" enable-background="new 0 0 16 16" xml:space="preserve">
<path d="M3.3,9.1h4.6c0.2,0,0.4,0.2,0.4,0.4V10c0,0.2-0.2,0.4-0.4,0.4H3.3l-0.1,0C3,10.3,2.9,10.2,2.9,10V9.6
	C2.9,9.4,3.1,9.1,3.3,9.1z M9.7,6.8v0.5c0,0.1-0.2,0.3-0.4,0.4h-6C3.1,7.7,3,7.6,2.9,7.5c0-0.1-0.1-0.1-0.1-0.2V6.8
	c0-0.1,0.1-0.2,0.2-0.3c0,0,0.1-0.1,0.2-0.1h6C9.5,6.4,9.7,6.6,9.7,6.8z M15.1,3.9l0.3,0.2c0.2,0.2,0.2,0.4,0.2,0.6
	c0,0.2,0,0.3-0.1,0.4l-5,6.6c-0.1,0.2-0.3,0.4-0.5,0.5l-0.7,0.4c-0.2,0.1-0.3,0.1-0.4,0.1c-0.2,0-0.3-0.1-0.3-0.3
	c0-0.1,0-0.2,0.1-0.4l0.2-0.8l0-0.1c0,0,0.1-0.2,0.2-0.3c0-0.1,0.1-0.1,0.1-0.2L14.1,4c0.2-0.2,0.4-0.3,0.6-0.3
	C14.8,3.7,15,3.8,15.1,3.9z M11,4v0.4c0,0.2-0.1,0.4-0.4,0.5H3.3C3.1,4.9,3,4.9,2.9,4.7c0-0.1-0.1-0.1-0.1-0.2V4
	c0-0.2,0.2-0.4,0.4-0.4h7.3C10.8,3.6,11,3.9,11,4z M12.7,14.1v-3.3h1v3.3c0,1-0.7,1.7-1.6,1.7H2c-0.9,0-1.6-0.8-1.6-1.7V1.9
	c0-1,0.7-1.7,1.6-1.7h10.1c0.9,0,1.6,0.8,1.6,1.7v2h-1v-2c0-0.1,0-0.2-0.1-0.3c-0.1-0.2-0.3-0.4-0.5-0.4H2c-0.3,0-0.6,0.2-0.6,0.6
	v12.3c0,0.3,0.3,0.6,0.6,0.6h10C12.3,14.7,12.6,14.5,12.7,14.1L12.7,14.1z"/>
</svg>
