<?xml version="1.0" encoding="utf-8"?>
<!-- Generator: Adobe Illustrator 17.0.0, SVG Export Plug-In . SVG Version: 6.00 Build 0)  -->
<!DOCTYPE svg PUBLIC "-//W3C//DTD SVG 1.1//EN" "http://www.w3.org/Graphics/SVG/1.1/DTD/svg11.dtd">
<svg version="1.1" id="图层_1" xmlns="http://www.w3.org/2000/svg" xmlns:xlink="http://www.w3.org/1999/xlink" x="0px" y="0px"
	 width="16px" height="16px" viewBox="0 0 16 16" enable-background="new 0 0 16 16" xml:space="preserve">
<path d="M14.7,12.4c0.2,0.2,0.3,0.4,0.3,0.5c0,0.1,0,0.2-0.1,0.2c-0.1,0.2-0.3,0.3-0.5,0.3c-0.1,0-0.3-0.1-0.4-0.2l-0.2,0l-0.2,0
	c-0.1,0-0.1,0-0.2,0h-0.2h-0.4c-1.1,0-2.1,0.6-2.6,1.6v0.1c0,0.1,0,0.2-0.1,0.2c-0.1,0.2-0.3,0.3-0.5,0.3c-0.3,0-0.6-0.3-0.6-0.6
	v-0.1c0.3-1.1,1.2-1.9,2.3-2.4c0.5-0.2,1.1-0.4,1.7-0.4C13.5,12,14,12.1,14.7,12.4z M6.8,14.7v0.1c0,0.2-0.1,0.4-0.3,0.5
	c-0.1,0.1-0.2,0.1-0.3,0.1c-0.3,0-0.6-0.3-0.6-0.6v-0.1c-0.5-1-1.5-1.6-2.6-1.6H2.7H2.5c0,0-0.1,0-0.2,0l-0.2,0l-0.2,0l-0.1,0
	c0,0-0.1,0.1-0.1,0.1l-0.1,0c-0.1,0-0.1,0-0.2,0c-0.2,0-0.4-0.1-0.5-0.3C1,13,1,12.9,1,12.9c0-0.2,0.1-0.4,0.3-0.5
	C2,12.1,2.5,12,2.9,12C4,12,5.2,12.5,6,13.3C6.4,13.7,6.6,14.2,6.8,14.7z M8,11.2c1.7,0,2.9-0.6,3.7-1.6c0.4-0.5,0.8-1.1,1.1-1.7
	c0.5-1.2,0.7-2.6,0.7-4.2c-0.1-0.1-0.2-0.1-0.4-0.1c-0.8,0-2.4,0.5-2.8,0.9C10,3.3,9,1.8,8,1.3C7.1,1.8,6.3,2.8,5.6,4.4
	C5.5,4.3,5.2,4.1,4.8,4C4.2,3.7,3.6,3.5,3.1,3.5c-0.2,0-0.4,0-0.6,0.1c0,1.6,0.3,3,0.9,4.2c0.6,1.3,1.4,2.3,2.7,2.9
	C6.6,11,7.3,11.2,8,11.2z M14.7,2.5c0,2.2-0.3,4.5-1.3,6.5c-0.4,0.9-1.1,1.7-1.9,2.4c-0.8,0.6-1.9,1-3.1,1.1v3.2
	c0,0.2-0.2,0.4-0.4,0.4c0,0-0.1,0-0.1,0c-0.2-0.1-0.3-0.2-0.3-0.4v-3.2c-1.7-0.1-3.2-1-4.2-2.3C2.9,9.4,2.5,8.6,2.2,7.8
	C1.6,6.2,1.3,4.4,1.3,2.5c0.2-0.1,0.6-0.2,1.1-0.2c1.1,0,2.5,0.2,2.8,0.5c0.1-0.3,0.2-0.6,0.4-0.8c0.5-0.8,1.3-1.5,2.4-2
	c1.6,0.8,2.4,1.6,2.8,2.8c0.3-0.3,1.9-0.6,3-0.6C14.3,2.3,14.6,2.4,14.7,2.5z"/>
</svg>
