<?xml version="1.0" encoding="utf-8"?>
<!-- Generator: Adobe Illustrator 17.0.0, SVG Export Plug-In . SVG Version: 6.00 Build 0)  -->
<!DOCTYPE svg PUBLIC "-//W3C//DTD SVG 1.1//EN" "http://www.w3.org/Graphics/SVG/1.1/DTD/svg11.dtd">
<svg version="1.1" id="图层_1" xmlns="http://www.w3.org/2000/svg" xmlns:xlink="http://www.w3.org/1999/xlink" x="0px" y="0px"
	 width="16px" height="16px" viewBox="0 0 16 16" enable-background="new 0 0 16 16" xml:space="preserve">
<path d="M8,14.7c-0.1,0-0.3-0.1-0.4-0.1L8,14l-0.4,0.5C2.9,11.9,0.2,9.1,0,6.4C0,5.5,0,4.7,0.3,4.2c0.6-1.7,2.2-2.8,4.1-2.8
	c1.5,0,2.9,0.8,3.7,2c0.8-1.2,2.1-2,3.7-2c1.8,0,3.5,1.1,4.1,2.8C16,4.7,16,5.5,16,6.4c-0.4,4.6-7.4,8.1-7.7,8.2
	C8.2,14.6,8.1,14.7,8,14.7 M4.3,2.6c-1.3,0-2.5,0.8-2.9,2C1.3,5,1.2,5.6,1.3,6.3C1.4,8.5,3.8,11,8,13.4c1.3-0.7,6.5-3.6,6.7-7.1
	c0.1-0.7,0-1.3-0.2-1.7c-0.4-1.2-1.6-2-2.9-2c-1.5,0-2.9,1.1-3.1,2.6c0,0.3-0.3,0.5-0.6,0.5c-0.3,0-0.6-0.2-0.6-0.5
	C7.2,3.7,5.9,2.6,4.3,2.6"/>
</svg>
