<?xml version="1.0" encoding="utf-8"?>
<!-- Generator: Adobe Illustrator 17.0.0, SVG Export Plug-In . SVG Version: 6.00 Build 0)  -->
<!DOCTYPE svg PUBLIC "-//W3C//DTD SVG 1.1//EN" "http://www.w3.org/Graphics/SVG/1.1/DTD/svg11.dtd">
<svg version="1.1" id="图层_1" xmlns="http://www.w3.org/2000/svg" xmlns:xlink="http://www.w3.org/1999/xlink" x="0px" y="0px"
	 width="16px" height="16px" viewBox="0 0 16 16" enable-background="new 0 0 16 16" xml:space="preserve">
<path id="Imported-Layers_17_" sketch:type="MSShapeGroup" fill="#1A1918" d="M15.7,4.2c-0.6-1.7-2.2-2.8-4.1-2.8
	c-1.5,0-2.9,0.8-3.7,2c-0.8-1.2-2.1-2-3.7-2c-1.8,0-3.5,1.1-4.1,2.8C0,4.7,0,5.5,0,6.4c0.2,2.7,2.8,5.5,7.6,8.1
	c0.1,0.1,0.3,0.1,0.4,0.1c0.1,0,0.2,0,0.3-0.1c0.3-0.1,7.3-3.6,7.7-8.2C16,5.5,16,4.7,15.7,4.2"/>
</svg>
