<?xml version="1.0" encoding="utf-8"?>
<!-- Generator: Adobe Illustrator 17.0.0, SVG Export Plug-In . SVG Version: 6.00 Build 0)  -->
<!DOCTYPE svg PUBLIC "-//W3C//DTD SVG 1.1//EN" "http://www.w3.org/Graphics/SVG/1.1/DTD/svg11.dtd">
<svg version="1.1" id="图层_1" xmlns="http://www.w3.org/2000/svg" xmlns:xlink="http://www.w3.org/1999/xlink" x="0px" y="0px"
	 width="16px" height="16px" viewBox="0 0 16 16" enable-background="new 0 0 16 16" xml:space="preserve">
<g>
	<path fill="#272635" d="M8,0.1C3.6,0.1,0.1,3.6,0.1,8c0,4.4,3.6,7.9,7.9,7.9c4.4,0,7.9-3.6,7.9-7.9C15.9,3.6,12.4,0.1,8,0.1L8,0.1z
		 M8.6,12.9c-0.2,0.2-0.4,0.3-0.7,0.3c-0.3,0-0.5-0.1-0.7-0.3c-0.2-0.2-0.3-0.4-0.3-0.8c0-0.3,0.1-0.5,0.3-0.7
		c0.2-0.2,0.5-0.3,0.7-0.3c0.3,0,0.5,0.1,0.7,0.3c0.2,0.2,0.3,0.4,0.3,0.7C8.9,12.5,8.8,12.8,8.6,12.9L8.6,12.9z M11.2,6.6
		c-0.2,0.3-0.3,0.5-0.6,0.8C10.4,7.5,10,7.9,9.5,8.4C9.3,8.5,9.2,8.7,9.1,8.8C9,8.9,8.9,9,8.9,9.1c0,0.1-0.1,0.2-0.1,0.3
		c0,0.1-0.1,0.2-0.1,0.5c-0.1,0.5-0.4,0.7-0.8,0.7c-0.2,0-0.4-0.1-0.6-0.2C7.1,10.1,7,9.9,7,9.6c0-0.4,0.1-0.7,0.2-1
		c0.1-0.3,0.3-0.5,0.5-0.7c0.2-0.2,0.5-0.5,0.8-0.8C8.7,6.8,9,6.6,9.1,6.5c0.1-0.1,0.2-0.3,0.3-0.4c0.1-0.2,0.1-0.3,0.1-0.5
		c0-0.4-0.1-0.7-0.4-0.9C8.9,4.4,8.5,4.2,8.1,4.2C7.6,4.2,7.2,4.4,7,4.6C6.7,4.9,6.5,5.3,6.4,5.7C6.2,6.3,5.9,6.5,5.5,6.5
		C5.2,6.5,5,6.4,4.8,6.3C4.6,6.1,4.6,5.9,4.6,5.7c0-0.4,0.1-0.9,0.4-1.3c0.3-0.4,0.7-0.8,1.2-1.1c0.5-0.3,1.2-0.4,1.9-0.4
		c0.7,0,1.3,0.1,1.8,0.4c0.5,0.2,0.9,0.6,1.2,1c0.3,0.4,0.4,0.9,0.4,1.4C11.4,5.9,11.4,6.3,11.2,6.6L11.2,6.6z M11.2,6.6"/>
</g>
</svg>
