<?xml version="1.0" encoding="utf-8"?>
<!-- Generator: Adobe Illustrator 17.0.0, SVG Export Plug-In . SVG Version: 6.00 Build 0)  -->
<!DOCTYPE svg PUBLIC "-//W3C//DTD SVG 1.1//EN" "http://www.w3.org/Graphics/SVG/1.1/DTD/svg11.dtd">
<svg version="1.1" id="图层_1" xmlns="http://www.w3.org/2000/svg" xmlns:xlink="http://www.w3.org/1999/xlink" x="0px" y="0px"
	 width="16px" height="16px" viewBox="0 0 16 16" enable-background="new 0 0 16 16" xml:space="preserve">
<g>
	<path fill="#262535" d="M8,0.8c1.9,0,3.7,0.7,5.1,2.1c1.4,1.4,2.1,3.1,2.1,5.1c0,1.9-0.7,3.7-2.1,5.1c-1.4,1.4-3.1,2.1-5.1,2.1
		c-1.9,0-3.7-0.7-5.1-2.1C1.6,11.7,0.8,9.9,0.8,8c0-1.9,0.7-3.7,2.1-5.1C4.3,1.6,6.1,0.8,8,0.8 M8,0C5.9,0,3.9,0.8,2.3,2.3
		C0.8,3.9,0,5.9,0,8c0,2.1,0.8,4.1,2.3,5.7C3.9,15.2,5.9,16,8,16c2.1,0,4.1-0.8,5.7-2.3C15.2,12.1,16,10.1,16,8
		c0-2.1-0.8-4.1-2.3-5.7C12.1,0.8,10.1,0,8,0L8,0L8,0z M10.2,4.1C9.7,3.6,9,3.4,8.1,3.4c-1,0-1.7,0.3-2.3,0.9C5.3,4.8,5,5.6,5,6.5h0
		c0,0.3,0.3,0.6,0.6,0.6c0.3,0,0.6-0.2,0.6-0.6h0c0,0,0,0,0,0c0,0,0,0,0,0c0,0,0,0,0,0c0-1.5,0.6-2.2,1.9-2.2c0.5,0,0.9,0.1,1.2,0.4
		C9.6,5,9.8,5.4,9.8,5.8c0,0.5-0.3,1-0.9,1.6L8.4,7.8C8,8.2,7.7,8.5,7.6,8.8c-0.1,0.3-0.2,0.7-0.2,1.4l0,0c0,0,0,0,0,0
		c0,0.3,0.2,0.5,0.5,0.5c0.3,0,0.5-0.2,0.5-0.5l0,0l0-0.2c0-0.7,0.3-1.2,0.9-1.7c1-0.8,1.6-1.7,1.6-2.4C11,5.2,10.7,4.5,10.2,4.1
		L10.2,4.1z M7.3,12.1c0-0.2,0.1-0.4,0.2-0.5c0.1-0.1,0.3-0.2,0.5-0.2s0.4,0.1,0.5,0.2c0.1,0.1,0.2,0.3,0.2,0.5
		c0,0.2-0.1,0.4-0.2,0.5c-0.1,0.1-0.3,0.2-0.5,0.2s-0.4-0.1-0.5-0.2C7.3,12.5,7.3,12.3,7.3,12.1L7.3,12.1z M7.3,12.1"/>
</g>
</svg>
