<?xml version="1.0" encoding="utf-8"?>
<!-- Generator: Adobe Illustrator 17.0.0, SVG Export Plug-In . SVG Version: 6.00 Build 0)  -->
<!DOCTYPE svg PUBLIC "-//W3C//DTD SVG 1.1//EN" "http://www.w3.org/Graphics/SVG/1.1/DTD/svg11.dtd">
<svg version="1.1" id="图层_1" xmlns="http://www.w3.org/2000/svg" xmlns:xlink="http://www.w3.org/1999/xlink" x="0px" y="0px"
	 width="16px" height="16px" viewBox="0 0 16 16" enable-background="new 0 0 16 16" xml:space="preserve">
<g>
	<path fill="#272636" d="M8,0.005c-4.409,0-7.995,3.588-7.995,7.996c0,4.408,3.586,7.994,7.995,7.994
		c4.407,0,7.995-3.586,7.995-7.994C15.995,3.593,12.407,0.005,8,0.005L8,0.005z M8,15.036c-3.879,0-7.036-3.155-7.036-7.034
		c0-3.881,3.156-7.036,7.036-7.036c3.879,0,7.034,3.155,7.034,7.036C15.034,11.881,11.879,15.036,8,15.036L8,15.036z M10.829,12.044
		c-0.151,0-0.304-0.057-0.419-0.174L7.382,8.842C7.27,8.731,7.208,8.58,7.208,8.423V3.167c0-0.326,0.265-0.593,0.594-0.593
		c0.328,0,0.593,0.267,0.593,0.593v5.01l2.854,2.854c0.232,0.232,0.232,0.608,0,0.84C11.132,11.987,10.981,12.044,10.829,12.044
		L10.829,12.044z M10.829,12.044"/>
</g>
</svg>
