<?xml version="1.0" encoding="utf-8"?>
<!-- Generator: Adobe Illustrator 17.0.0, SVG Export Plug-In . SVG Version: 6.00 Build 0)  -->
<!DOCTYPE svg PUBLIC "-//W3C//DTD SVG 1.1//EN" "http://www.w3.org/Graphics/SVG/1.1/DTD/svg11.dtd">
<svg version="1.1" id="图层_1" xmlns="http://www.w3.org/2000/svg" xmlns:xlink="http://www.w3.org/1999/xlink" x="0px" y="0px"
	 width="16px" height="16px" viewBox="0 0 16 16" enable-background="new 0 0 16 16" xml:space="preserve">
<g>
	<path fill="#272635" d="M13.7,9.6C12.2,8.1,10.6,6.6,9,5.2c-0.6-0.6-1.4-0.6-2,0C5.4,6.6,3.8,8.1,2.3,9.5C2.2,9.6,2.1,9.8,2.1,10
		c0,0.8,0,3.3,0,4.1c0,0.9,0.2,1.1,1.1,1.2c0.8,0,1.6,0,2.4,0c0.1,0,0.2,0,0.4,0c0-0.8,0-3.1,0-3.8c0-0.6,0.1-0.7,0.7-0.7
		c0.9,0,1.7,0,2.6,0c0.6,0,0.7,0.1,0.7,0.7c0,0.7,0,3.1,0,3.8c1.1,0,2.1,0,3.1,0c0.5,0,0.8-0.4,0.8-1c0-0.9,0-3.3,0-4.2
		C13.9,9.9,13.8,9.7,13.7,9.6L13.7,9.6z M13.7,9.6"/>
	<path fill="#272635" d="M15.7,7.5c-0.1-0.1-0.1-0.1-0.2-0.2c-0.6-0.6-1.3-1.2-1.9-1.9c-1.4-1.3-2.8-2.7-4.2-4C9,1,8.6,0.8,7.8,0.8
		C7.5,0.8,7,1,6.6,1.4C4.7,3.3,2.7,5.1,0.8,6.9C0.6,7.1,0.4,7.2,0.3,7.4C0,7.7,0,8,0.1,8.4C0.3,8.8,0.7,9,1,8.9
		c0.3-0.1,0.6-0.2,0.8-0.4C3.5,7,5,5.5,6.6,4.1C7.8,3,8.3,3,9.4,4.1c1.6,1.5,3.2,3,4.8,4.5c0.1,0.1,0.2,0.2,0.3,0.3
		c0.4,0.3,1,0.2,1.3-0.2C16.1,8.3,16,7.9,15.7,7.5L15.7,7.5z M15.7,7.5"/>
</g>
</svg>
