<?xml version="1.0" encoding="utf-8"?>
<!-- Generator: Adobe Illustrator 17.0.0, SVG Export Plug-In . SVG Version: 6.00 Build 0)  -->
<!DOCTYPE svg PUBLIC "-//W3C//DTD SVG 1.1//EN" "http://www.w3.org/Graphics/SVG/1.1/DTD/svg11.dtd">
<svg version="1.1" id="图层_1" xmlns="http://www.w3.org/2000/svg" xmlns:xlink="http://www.w3.org/1999/xlink" x="0px" y="0px"
	 width="16px" height="16px" viewBox="0 0 16 16" enable-background="new 0 0 16 16" xml:space="preserve">
<g>
	<path fill="#040000" d="M8,6.7c1.8,0,3.3-1.5,3.3-3.3S9.8,0.1,8,0.1c-1.8,0-3.3,1.5-3.3,3.3S6.2,6.7,8,6.7z M8,0.9
		c1.4,0,2.5,1.1,2.5,2.5c0,1.4-1.1,2.5-2.5,2.5c-1.4,0-2.5-1.1-2.5-2.5C5.5,2,6.6,0.9,8,0.9z"/>
	<path fill="#040000" d="M9.2,6.9C9,6.9,8.8,7,8.7,7.2L8.3,8.5H7.7L7.3,7.2C7.2,7,7,6.9,6.8,6.9c-2.7,0.6-4.7,3-4.7,5.8
		c0,0.9,0.2,1.5,0.6,2c0.1,0.1,0.2,0.2,0.3,0.2c0.1,0,0.2,0,0.2-0.1c0.1-0.1,0.1-0.2,0.2-0.3c0-0.1,0-0.2-0.1-0.3
		c-0.3-0.4-0.4-0.9-0.4-1.5c0-2.3,1.5-4.3,3.7-4.9L7.1,9c0.1,0.2,0.2,0.3,0.4,0.3h1.1c0.2,0,0.3-0.1,0.4-0.3l0.4-1.2
		c2.2,0.6,3.7,2.6,3.7,4.9c0,0.7-0.1,1.2-0.4,1.5c-0.1,0.1-0.1,0.2-0.1,0.3c0,0.1,0.1,0.2,0.2,0.3c0.2,0.1,0.4,0.1,0.6-0.1
		c0.4-0.5,0.6-1.2,0.6-2C13.9,9.9,11.9,7.5,9.2,6.9z"/>
	<path fill="#040000" d="M8.4,9.8C8.4,9.7,8.4,9.7,8.4,9.8L8.4,9.7c0,0-0.1-0.1-0.2-0.1l-0.1,0c0,0,0,0,0,0L8,9.5c0,0,0,0,0,0
		l-0.1,0l0,0c-0.1,0-0.1,0.1-0.2,0.1L7.7,9.7l-1.1,3.8c0,0.1,0,0.2,0,0.3l1,1.8l0,0l0.1,0.1c0,0,0,0.1,0.1,0.1
		c0.1,0,0.1,0.1,0.2,0.1l0,0c0.1,0,0.1,0,0.2-0.1c0,0,0.1-0.1,0.1-0.1l1.1-1.9c0.1-0.1,0.1-0.2,0-0.3L8.4,9.8z M8,14.7l-0.6-1.1
		L8,11.4l0.6,2.2L8,14.7z"/>
</g>
</svg>
