<?xml version="1.0" encoding="utf-8"?>
<!-- Generator: Adobe Illustrator 17.0.0, SVG Export Plug-In . SVG Version: 6.00 Build 0)  -->
<!DOCTYPE svg PUBLIC "-//W3C//DTD SVG 1.1//EN" "http://www.w3.org/Graphics/SVG/1.1/DTD/svg11.dtd">
<svg version="1.1" id="图层_1" xmlns="http://www.w3.org/2000/svg" xmlns:xlink="http://www.w3.org/1999/xlink" x="0px" y="0px"
	 width="16px" height="16px" viewBox="0 0 16 16" enable-background="new 0 0 16 16" xml:space="preserve">
<path d="M12.8,11.7h-1.6c-0.3,0-0.5-0.2-0.5-0.5c0-0.1,0-0.2,0.1-0.3c0.1-0.2,0.2-0.2,0.5-0.2h1.6c0.3,0,0.5,0.2,0.5,0.5
	c0,0.1,0,0.2-0.1,0.3C13.2,11.6,13,11.7,12.8,11.7z M6.9,11.7c-0.1-0.1-0.2-0.2-0.2-0.5c0-0.3,0.2-0.5,0.5-0.5h1.6
	c0.3,0,0.5,0.2,0.5,0.5c0,0.2-0.1,0.4-0.2,0.5c-0.1,0-0.2,0.1-0.3,0.1H7.2C7.1,11.7,7,11.7,6.9,11.7z M4.8,11.7H3.3
	c-0.3,0-0.5-0.2-0.5-0.5c0-0.3,0.2-0.5,0.5-0.5h1.6c0.3,0,0.5,0.2,0.5,0.5c0,0.2-0.1,0.4-0.2,0.5C5,11.7,4.9,11.7,4.8,11.7z
	 M12.8,8.5h-1.6c-0.3,0-0.5-0.2-0.5-0.5c0-0.2,0.1-0.4,0.3-0.5c0.1,0,0.2-0.1,0.3-0.1h1.6c0.3,0,0.5,0.2,0.5,0.5
	C13.3,8.3,13.1,8.5,12.8,8.5z M6.9,8.5C6.8,8.4,6.7,8.2,6.7,8c0-0.3,0.2-0.5,0.5-0.5h1.6c0.3,0,0.5,0.2,0.5,0.5S9.1,8.5,8.8,8.5H7.2
	C7.1,8.5,7,8.5,6.9,8.5z M3,8.5C2.9,8.4,2.8,8.2,2.8,8c0-0.3,0.2-0.5,0.5-0.5h1.6c0.1,0,0.2,0,0.3,0.1C5.3,7.6,5.4,7.8,5.4,8
	c0,0.2-0.1,0.4-0.2,0.5C5,8.5,4.9,8.5,4.8,8.5H3.3C3.2,8.5,3.1,8.5,3,8.5z M15,13.8V5.3H1.1v8.5c0,0.3,0.2,0.6,0.5,0.6h12.8
	C14.8,14.4,15,14.1,15,13.8z M15,4.3V2.7c0-0.3-0.2-0.5-0.5-0.5h-2.2l0,0.5c0,0.6-0.2,1-0.5,1c-0.3,0-0.5-0.4-0.5-1l0-0.5H4.9l0,0.5
	c0,0.5-0.3,1-0.5,1c-0.3,0-0.5-0.4-0.5-1l0-0.5H1.6c-0.3,0-0.5,0.2-0.5,0.5v1.6H15z M12.2,1.2h2.3c0.8,0,1.5,0.6,1.5,1.4
	c0,0.1,0,0.1,0,0.2v11.2c0,0.8-0.7,1.6-1.6,1.6H1.6c-0.8,0-1.6-0.7-1.6-1.6V2.7c0-0.9,0.7-1.6,1.6-1.6h2.3c0-0.4,0.2-0.6,0.5-0.6
	c0.2,0,0.4,0.2,0.4,0.6h6.5c0-0.3,0.1-0.6,0.4-0.6C12,0.6,12.2,0.8,12.2,1.2z"/>
</svg>
