<?xml version="1.0" encoding="utf-8"?>
<!-- Generator: Adobe Illustrator 17.0.0, SVG Export Plug-In . SVG Version: 6.00 Build 0)  -->
<!DOCTYPE svg PUBLIC "-//W3C//DTD SVG 1.1//EN" "http://www.w3.org/Graphics/SVG/1.1/DTD/svg11.dtd">
<svg version="1.1" id="图层_1" xmlns="http://www.w3.org/2000/svg" xmlns:xlink="http://www.w3.org/1999/xlink" x="0px" y="0px"
	 width="16px" height="16px" viewBox="0 0 16 16" enable-background="new 0 0 16 16" xml:space="preserve">
<g>
	<path fill="#272635" d="M14.6,9.1c-0.3,0-0.6,0.2-0.6,0.6v4c0,0.3-0.3,0.6-0.6,0.6H1.8c-0.3,0-0.6-0.3-0.6-0.6V3.7
		c0-0.3,0.3-0.6,0.6-0.6h5.5c0.3,0,0.6-0.3,0.6-0.6C7.8,2.2,7.6,2,7.3,2H1.7C0.8,2,0.1,2.7,0.1,3.6v10.2c0,0.9,0.7,1.7,1.6,1.7h11.8
		c0.9,0,1.6-0.7,1.6-1.7V9.7C15.2,9.4,15,9.1,14.6,9.1L14.6,9.1z M15.9,4.5L15.9,4.5l-3.9-4l0,0c-0.1,0-0.2-0.1-0.3-0.1
		c-0.3,0-0.6,0.3-0.6,0.6c0,0.1,0,0.2,0.1,0.3l0,0l2.7,2.7l-2.7,0c-4.5,0.6-5.5,3.3-5.9,7.6c0,0.3,0.3,0.6,0.6,0.6
		c0.3,0,0.5-0.2,0.6-0.4l0-0.2c0.3-4,1.1-6,4.7-6.4h2.7l-2.5,2.6l-0.1,0.1c0,0.1-0.1,0.2-0.1,0.3c0,0.3,0.3,0.6,0.6,0.6
		c0.1,0,0.2,0,0.3-0.1l3.9-3.9c0,0,0.1-0.1,0.1-0.1C15.9,4.6,15.9,4.6,15.9,4.5L15.9,4.5z M15.9,4.5"/>
</g>
</svg>
