<?xml version="1.0" encoding="utf-8"?>
<!-- Generator: Adobe Illustrator 17.0.0, SVG Export Plug-In . SVG Version: 6.00 Build 0)  -->
<!DOCTYPE svg PUBLIC "-//W3C//DTD SVG 1.1//EN" "http://www.w3.org/Graphics/SVG/1.1/DTD/svg11.dtd">
<svg version="1.1" id="图层_1" xmlns="http://www.w3.org/2000/svg" xmlns:xlink="http://www.w3.org/1999/xlink" x="0px" y="0px"
	 width="16px" height="16px" viewBox="0 0 16 16" enable-background="new 0 0 16 16" xml:space="preserve">
<path fill="#272636" d="M8,0.005C3.603,0.005,0.005,3.603,0.005,8S3.603,15.995,8,15.995S15.995,12.397,15.995,8
	S12.397,0.005,8,0.005z M8.3,3.103c0.2-0.3,0.6-0.4,0.999-0.4c0.3,0,0.6,0.1,0.8,0.3s0.3,0.4,0.3,0.7c0,0.4-0.1,0.7-0.4,0.899
	c-0.3,0.3-0.7,0.4-1.099,0.4c-0.3,0-0.6-0.1-0.799-0.2c-0.1-0.2-0.2-0.5-0.2-0.799S8,3.403,8.3,3.103z M8.6,12.797
	c-0.6,0.3-1.099,0.5-1.499,0.5c-0.7,0-0.899-0.6-0.6-1.899l0.6-2.698c0.1-0.4,0.1-0.6,0-0.6s-0.3,0.1-0.6,0.2
	c-0.2,0.1-0.5,0.3-0.7,0.4l-0.3-0.4C6.101,7.7,6.801,7.3,7.5,7.001s1.199-0.5,1.599-0.5c0.6,0,0.7,0.6,0.4,1.699l-0.7,2.798
	c-0.1,0.5-0.1,0.7,0.1,0.7c0.3,0,0.7-0.2,1.299-0.6l0.3,0.4C9.899,11.998,9.199,12.497,8.6,12.797z"/>
</svg>
