<?xml version="1.0" encoding="utf-8"?>
<!-- Generator: Adobe Illustrator 17.0.0, SVG Export Plug-In . SVG Version: 6.00 Build 0)  -->
<!DOCTYPE svg PUBLIC "-//W3C//DTD SVG 1.1//EN" "http://www.w3.org/Graphics/SVG/1.1/DTD/svg11.dtd">
<svg version="1.1" id="图层_1" xmlns="http://www.w3.org/2000/svg" xmlns:xlink="http://www.w3.org/1999/xlink" x="0px" y="0px"
	 width="16px" height="16px" viewBox="0 0 16 16" enable-background="new 0 0 16 16" xml:space="preserve">
<path fill="#272636" d="M14.182,1.609c2.139,2.139,2.139,5.609,0,7.747c-1.807,1.807-4.552,2.069-6.654,0.826l-2.31,2.31
	l1.555,1.557c0.167,0.166,0.167,0.434,0,0.599l-1.221,1.222c-0.166,0.166-0.434,0.166-0.601,0l-1.555-1.557l-1.139,1.139
	c-0.166,0.166-0.434,0.166-0.599,0l-1.319-1.32c-0.166-0.166-0.166-0.434,0-0.599l5.27-5.269C4.365,6.161,4.627,3.416,6.433,1.609
	C8.573-0.53,12.041-0.53,14.182,1.609L14.182,1.609z M8.597,3.774c-0.945,0.945-0.945,2.476,0,3.42c0.945,0.943,2.476,0.943,3.42,0
	c0.945-0.945,0.945-2.476,0-3.42C11.073,2.829,9.542,2.829,8.597,3.774L8.597,3.774z"/>
</svg>
