<?xml version="1.0" encoding="utf-8"?>
<!-- Generator: Adobe Illustrator 17.0.0, SVG Export Plug-In . SVG Version: 6.00 Build 0)  -->
<!DOCTYPE svg PUBLIC "-//W3C//DTD SVG 1.1//EN" "http://www.w3.org/Graphics/SVG/1.1/DTD/svg11.dtd">
<svg version="1.1" id="图层_1" xmlns="http://www.w3.org/2000/svg" xmlns:xlink="http://www.w3.org/1999/xlink" x="0px" y="0px"
	 width="16px" height="16px" viewBox="0 0 16 16" enable-background="new 0 0 16 16" xml:space="preserve">
<g>
	<path fill="#070001" d="M5.2,9.4H1.1c-0.6,0-1.1,0.5-1.1,1.1v4.1c0,0.6,0.5,1.1,1.1,1.1h4.1c0.6,0,1.1-0.5,1.1-1.1v-4.1
		C6.3,9.9,5.8,9.4,5.2,9.4 M5.4,14.6c0,0.1-0.1,0.2-0.2,0.2H1.1c-0.1,0-0.2-0.1-0.2-0.2v-4.1c0-0.1,0.1-0.2,0.2-0.2h4.1
		c0.1,0,0.2,0.1,0.2,0.2V14.6z"/>
	<path fill="#070001" d="M5.2,0.4H1.1c-0.6,0-1.1,0.5-1.1,1.1v4.1c0,0.6,0.5,1.1,1.1,1.1h4.1c0.6,0,1.1-0.5,1.1-1.1V1.4
		C6.3,0.8,5.8,0.4,5.2,0.4 M5.4,5.5c0,0.1-0.1,0.2-0.2,0.2H1.1C1.1,5.7,1,5.6,1,5.5V1.4c0-0.1,0.1-0.2,0.2-0.2h4.1
		c0.1,0,0.2,0.1,0.2,0.2V5.5z"/>
	<path fill="#070001" d="M8.4,2.5h7.1c0.3,0,0.5-0.2,0.5-0.5s-0.2-0.5-0.5-0.5H8.4C8.1,1.5,7.9,1.7,7.9,2S8.1,2.5,8.4,2.5"/>
	<path fill="#070001" d="M15.4,4.5H8.4C8.1,4.5,7.9,4.7,7.9,5c0,0.3,0.2,0.5,0.5,0.5h7.1c0.3,0,0.5-0.2,0.5-0.5
		C15.9,4.7,15.7,4.5,15.4,4.5"/>
	<path fill="#070001" d="M15.4,10.5H8.4c-0.3,0-0.5,0.2-0.5,0.5c0,0.3,0.2,0.5,0.5,0.5h7.1c0.3,0,0.5-0.2,0.5-0.5
		C15.9,10.8,15.7,10.5,15.4,10.5"/>
	<path fill="#070001" d="M15.4,13.5H8.4c-0.3,0-0.5,0.2-0.5,0.5c0,0.3,0.2,0.5,0.5,0.5h7.1c0.3,0,0.5-0.2,0.5-0.5
		C15.9,13.8,15.7,13.5,15.4,13.5"/>
</g>
</svg>
