<?xml version="1.0" encoding="utf-8"?>
<!-- Generator: Adobe Illustrator 17.0.0, SVG Export Plug-In . SVG Version: 6.00 Build 0)  -->
<!DOCTYPE svg PUBLIC "-//W3C//DTD SVG 1.1//EN" "http://www.w3.org/Graphics/SVG/1.1/DTD/svg11.dtd">
<svg version="1.1" id="图层_1" xmlns="http://www.w3.org/2000/svg" xmlns:xlink="http://www.w3.org/1999/xlink" x="0px" y="0px"
	 width="16px" height="16px" viewBox="0 0 16 16" enable-background="new 0 0 16 16" xml:space="preserve">
<path fill="#272636" d="M8.001,0.005c-2.319,0-4.206,1.886-4.206,4.203c0,2.145,1.621,3.901,3.7,4.153v6.281h1.013V8.362
	c2.077-0.253,3.698-2.008,3.698-4.153C12.205,1.891,10.318,0.005,8.001,0.005L8.001,0.005z M8.001,7.4
	c-1.76,0-3.193-1.432-3.193-3.192c0-1.759,1.433-3.19,3.193-3.19c1.759,0,3.192,1.432,3.192,3.19C11.192,5.968,9.759,7.4,8.001,7.4z
	 M8.001,1.61c-1.091,0-2.076,0.687-2.449,1.713C5.488,3.497,5.58,3.691,5.754,3.754c0.038,0.014,0.077,0.02,0.115,0.02
	c0.139,0,0.269-0.085,0.319-0.222c0.276-0.759,1.004-1.268,1.813-1.268c0.185,0,0.338-0.151,0.338-0.338
	C8.338,1.761,8.186,1.61,8.001,1.61z M9.65,13.29c0.273,0.215,0.436,0.484,0.436,0.777c0,0.701-0.933,1.27-2.085,1.27
	s-2.085-0.569-2.085-1.27c0-0.293,0.162-0.562,0.436-0.777c-0.544,0.282-0.889,0.701-0.889,1.168c0,0.848,1.136,1.537,2.538,1.537
	c1.401,0,2.537-0.689,2.537-1.537C10.537,13.991,10.193,13.572,9.65,13.29z"/>
</svg>
