<?xml version="1.0" encoding="utf-8"?>
<!-- Generator: Adobe Illustrator 17.0.0, SVG Export Plug-In . SVG Version: 6.00 Build 0)  -->
<!DOCTYPE svg PUBLIC "-//W3C//DTD SVG 1.1//EN" "http://www.w3.org/Graphics/SVG/1.1/DTD/svg11.dtd">
<svg version="1.1" id="图层_1" xmlns="http://www.w3.org/2000/svg" xmlns:xlink="http://www.w3.org/1999/xlink" x="0px" y="0px"
	 width="16px" height="16px" viewBox="0 0 16 16" enable-background="new 0 0 16 16" xml:space="preserve">
<g>
	<path fill="#272635" d="M8,0.1C4.8,0.1,2.3,2.7,2.3,6c0,3.3,5.7,9.9,5.7,9.9s5.7-6.6,5.7-9.9C13.7,2.7,11.2,0.1,8,0.1L8,0.1L8,0.1z
		 M8,7.1c-1.3,0-2.5-1.2-2.5-2.4c0-1.2,1.1-2.4,2.5-2.4c1.4,0,2.5,1.2,2.5,2.4C10.5,5.9,9.3,7.1,8,7.1L8,7.1L8,7.1z M8,7.1"/>
</g>
</svg>
