<?xml version="1.0" encoding="utf-8"?>
<!-- Generator: Adobe Illustrator 17.0.0, SVG Export Plug-In . SVG Version: 6.00 Build 0)  -->
<!DOCTYPE svg PUBLIC "-//W3C//DTD SVG 1.1//EN" "http://www.w3.org/Graphics/SVG/1.1/DTD/svg11.dtd">
<svg version="1.1" id="图层_1" xmlns="http://www.w3.org/2000/svg" xmlns:xlink="http://www.w3.org/1999/xlink" x="0px" y="0px"
	 width="16px" height="16px" viewBox="0 0 16 16" enable-background="new 0 0 16 16" xml:space="preserve">
<g>
	<path fill="#272636" d="M11.398,5.202H4.602c-0.3,0-0.6,0.3-0.6,0.6c0,0.3,0.3,0.6,0.6,0.6h6.796c0.3,0,0.6-0.3,0.6-0.6
		C11.997,5.502,11.698,5.202,11.398,5.202L11.398,5.202z M11.398,5.202"/>
	<path fill="#272636" d="M10.598,8H5.402c-0.3,0-0.6,0.3-0.6,0.6c0,0.3,0.3,0.6,0.6,0.6h5.197c0.3,0,0.6-0.3,0.6-0.6
		C11.198,8.3,10.898,8,10.598,8L10.598,8z M10.598,8"/>
	<path fill="#272636" d="M8,0.005c-4.397,0-7.995,3.098-7.995,6.896c0,1.899,0.999,3.698,2.598,4.997l1.999,1.499
		c-0.1,0.3-0.3,1.099-0.6,1.799c-0.1,0.2,0,0.5,0.1,0.6c0.2,0.1,0.3,0.2,0.5,0.2h0.2c0.7-0.3,2.199-1.099,3.298-2.199
		c4.297-0.1,7.895-3.098,7.895-6.796C15.995,3.103,12.397,0.005,8,0.005L8,0.005z M8,12.497C7.9,12.497,7.9,12.497,8,12.497
		c-0.3,0-0.6,0.4-0.6,0.4s-0.999,0.999-1.899,1.499c0.3-0.999,0.3-1.399,0.2-1.599l-0.1-0.1l0,0l0,0l0,0
		c-0.3-0.1-1.599-0.899-2.698-1.899C1.804,9.699,1.204,8.2,1.204,6.901c0-3.098,2.998-5.696,6.796-5.696
		c3.698,0,6.796,2.498,6.796,5.696C14.796,9.999,11.698,12.497,8,12.497L8,12.497z M8,12.497"/>
</g>
</svg>
