<?xml version="1.0" encoding="utf-8"?>
<!-- Generator: Adobe Illustrator 17.0.0, SVG Export Plug-In . SVG Version: 6.00 Build 0)  -->
<!DOCTYPE svg PUBLIC "-//W3C//DTD SVG 1.1//EN" "http://www.w3.org/Graphics/SVG/1.1/DTD/svg11.dtd">
<svg version="1.1" id="图层_1" xmlns="http://www.w3.org/2000/svg" xmlns:xlink="http://www.w3.org/1999/xlink" x="0px" y="0px"
	 width="16px" height="16px" viewBox="0 0 16 16" enable-background="new 0 0 16 16" xml:space="preserve">
<path fill="#272635" d="M15.8,14.6l-4-3.8c0.9-1.1,1.5-2.6,1.5-4.2c0-3.7-3-6.6-6.6-6.6S0,3,0,6.6s2.9,6.6,6.6,6.6
	c1.5,0,2.9-0.5,4-1.4l4,3.8c0.2,0.1,0.4,0.2,0.6,0.2c0.2,0,0.4-0.1,0.6-0.2C16.1,15.4,16.1,14.9,15.8,14.6z M1.7,6.6
	c0-2.7,2.2-4.9,4.9-4.9c2.8,0,4.9,2.3,4.9,4.9s-2.2,4.9-4.9,4.9C3.9,11.6,1.7,9.3,1.7,6.6z"/>
</svg>
