<?xml version="1.0" encoding="utf-8"?>
<!-- Generator: Adobe Illustrator 17.0.0, SVG Export Plug-In . SVG Version: 6.00 Build 0)  -->
<!DOCTYPE svg PUBLIC "-//W3C//DTD SVG 1.1//EN" "http://www.w3.org/Graphics/SVG/1.1/DTD/svg11.dtd">
<svg version="1.1" id="图层_1" xmlns="http://www.w3.org/2000/svg" xmlns:xlink="http://www.w3.org/1999/xlink" x="0px" y="0px"
	 width="16px" height="16px" viewBox="0 0 16 16" enable-background="new 0 0 16 16" xml:space="preserve">
<g>
	<path d="M1.5,3.9c0,0-0.3-0.5-0.3-0.8c0-0.8,0.7-1.5,1.5-1.5c0.4,0,0.8,0.3,0.8,0.3c0.1,0.1,0.3,0,0.4-0.1l0.4-0.4
		c0.1-0.1,0.1-0.1,0.1-0.2S4.3,1.1,4.3,1.1c0,0-0.9-0.6-1.6-0.6c-1.4,0-2.6,1.2-2.6,2.6c0,0.7,0.5,1.5,0.6,1.6
		c0,0.1,0.1,0.1,0.2,0.1c0.1,0,0.1,0,0.2-0.1l0.4-0.4C1.5,4.2,1.6,4,1.5,3.9z"/>
	<path d="M11.3,4.7c-0.1-0.1-0.3-0.1-0.4,0L7.4,8.3c0,0-0.1,0-0.1,0L5.1,6.1C5,6,4.8,6,4.7,6.1L4.4,6.5C4.3,6.6,4.3,6.6,4.3,6.7
		c0,0.1,0,0.1,0.1,0.2L6.5,9c0.1,0.1,0.1,0.1,0.1,0.1l0,0c0,0,0.1,0.1,0.1,0.1l0.4,0.4c0.1,0.1,0.1,0.1,0.2,0.1s0.1,0,0.2-0.1
		l4.2-4.2c0.1-0.1,0.1-0.3,0-0.4L11.3,4.7z"/>
	<path d="M12.8,3.1c-0.6-0.6-1.3-1.1-2.1-1.4C9.8,1.3,8.9,1.1,8,1.1c-0.9,0-1.8,0.2-2.6,0.5C4.6,2,3.9,2.5,3.3,3.1
		C2.7,3.7,2.2,4.4,1.8,5.2C1.5,6,1.3,6.9,1.3,7.8s0.2,1.8,0.5,2.6c0.3,0.8,0.8,1.5,1.4,2.1c0.3,0.3,0.9,0.8,0.9,0.8c0,0,0,0,0,0
		c0,0,0,0,0,0l-1.3,1.3c-0.1,0.1-0.1,0.3,0,0.4l0.4,0.4c0.1,0.1,0.3,0.1,0.4,0L5.2,14c0,0,0.1-0.1,0.2,0l0.1,0
		c0.8,0.4,1.7,0.5,2.6,0.5s1.8-0.2,2.6-0.5l0.1,0c0,0,0.1,0,0.1,0.1l1.5,1.5c0.1,0.1,0.1,0.1,0.2,0.1s0.1,0,0.2-0.1l0.4-0.4
		c0.1-0.1,0.1-0.3,0-0.4l-1.3-1.3c0,0,0,0,0,0c0,0,0,0,0,0c0,0,0.6-0.5,1-0.8c0.6-0.6,1.1-1.3,1.4-2.1c0.4-0.8,0.5-1.7,0.5-2.6
		S14.6,6,14.2,5.2C13.9,4.4,13.4,3.7,12.8,3.1z M13.7,7.8c0,3.1-2.5,5.6-5.6,5.6c-3.1,0-5.6-2.5-5.6-5.6c0-3.1,2.5-5.6,5.6-5.6
		C11.1,2.2,13.7,4.7,13.7,7.8z"/>
	<path d="M13.3,0.5c-0.7,0-1.5,0.5-1.6,0.6c-0.1,0-0.1,0.1-0.1,0.2c0,0.1,0,0.1,0.1,0.2l0.4,0.4c0.1,0.1,0.3,0.1,0.4,0.1
		c0,0,0.5-0.3,0.8-0.3c0.8,0,1.5,0.7,1.5,1.5c0,0.4-0.3,0.8-0.3,0.8c-0.1,0.1-0.1,0.3,0.1,0.4l0.4,0.4c0,0,0.1,0.1,0.2,0.1
		c0.1,0,0.2,0,0.2-0.1c0,0,0.6-0.9,0.6-1.6C15.9,1.7,14.7,0.5,13.3,0.5z"/>
</g>
</svg>
