<?xml version="1.0" encoding="utf-8"?>
<!-- Generator: Adobe Illustrator 17.0.0, SVG Export Plug-In . SVG Version: 6.00 Build 0)  -->
<!DOCTYPE svg PUBLIC "-//W3C//DTD SVG 1.1//EN" "http://www.w3.org/Graphics/SVG/1.1/DTD/svg11.dtd">
<svg version="1.1" id="图层_1" xmlns="http://www.w3.org/2000/svg" xmlns:xlink="http://www.w3.org/1999/xlink" x="0px" y="0px"
	 width="16px" height="16px" viewBox="0 0 16 16" enable-background="new 0 0 16 16" xml:space="preserve">
<g>
	<path fill="#272635" d="M0.2,5.9h1.2v4.3H0.2V5.9L0.2,5.9z M11.9,5.9c0.3-0.2,0.7-0.4,1-0.6c0.9,1.6,1,3.6,0.1,5.2
		c-0.3-0.2-0.7-0.4-1-0.5C12.6,8.7,12.6,7.1,11.9,5.9L11.9,5.9L11.9,5.9z M13.5,3.6c0.3-0.2,0.7-0.4,1-0.6c1,1.7,1.5,3.7,1.4,5.8
		c-0.1,1.4-0.5,2.8-1.2,3.9c-0.3-0.2-0.7-0.4-1-0.5C15,9.5,14.9,6.1,13.5,3.6L13.5,3.6L13.5,3.6z M9.2,3.4c-2,1.1-4,2-6,3.1v3.2
		c2,1,3.9,2,5.9,3c0.1,0.1,0.3,0.1,0.5,0.1c0.2-0.1,0.2-0.3,0.2-0.4V3.7c0-0.1,0-0.4-0.2-0.4C9.4,3.4,9.3,3.4,9.2,3.4L9.2,3.4
		L9.2,3.4z M9.4,2.1h0.2c0.3,0,0.6,0.2,0.9,0.4c0.3,0.3,0.4,0.9,0.4,1.3v8.6c0,0.7-0.5,1.5-1.3,1.5H9.4c-0.3,0-0.5-0.1-0.8-0.2
		c-2.2-1.2-4.4-2.2-6.5-3.4V5.7c2.2-1.1,4.4-2.2,6.5-3.3C8.9,2.3,9.2,2.2,9.4,2.1L9.4,2.1L9.4,2.1z M9.4,2.1"/>
</g>
</svg>
