<?xml version="1.0" encoding="utf-8"?>
<!-- Generator: Adobe Illustrator 17.0.0, SVG Export Plug-In . SVG Version: 6.00 Build 0)  -->
<!DOCTYPE svg PUBLIC "-//W3C//DTD SVG 1.1//EN" "http://www.w3.org/Graphics/SVG/1.1/DTD/svg11.dtd">
<svg version="1.1" id="图层_1" xmlns="http://www.w3.org/2000/svg" xmlns:xlink="http://www.w3.org/1999/xlink" x="0px" y="0px"
	 width="16px" height="16px" viewBox="0 0 16 16" enable-background="new 0 0 16 16" xml:space="preserve">
<g>
	<rect x="4.2" y="8" width="7.7" height="1"/>
	<path d="M14.6,4.1c-0.4-0.8-0.9-1.5-1.6-2.1c-0.7-0.6-1.4-1.1-2.3-1.4C9-0.1,7-0.1,5.2,0.6C4.4,0.9,3.6,1.4,2.9,2
		C2.3,2.6,1.8,3.3,1.4,4.1C1,4.9,0.8,5.7,0.8,6.6S1,8.4,1.4,9.2c0.4,0.8,0.9,1.5,1.6,2.1c0.7,0.6,1.4,1.1,2.3,1.4
		c1.6,0.6,3.5,0.7,5.1,0.2l2.6,3.1v-4.6c0.7-0.6,1.2-1.2,1.6-2c0.4-0.9,0.7-1.8,0.7-2.7C15.2,5.7,15,4.9,14.6,4.1z M12.2,10.7
		L12,10.8v2.3l-1.3-1.6l-0.3,0.1C9.6,12,8.8,12.1,8,12.1c-3.4,0-6.2-2.5-6.2-5.5S4.6,1.1,8,1.1c3.4,0,6.2,2.5,6.2,5.5
		C14.2,8.2,13.5,9.6,12.2,10.7z"/>
	<rect x="4.2" y="6.2" width="7.7" height="1"/>
	<rect x="4.2" y="4.4" width="7.7" height="1"/>
</g>
</svg>
