<?xml version="1.0" encoding="utf-8"?>
<!-- Generator: Adobe Illustrator 17.0.0, SVG Export Plug-In . SVG Version: 6.00 Build 0)  -->
<!DOCTYPE svg PUBLIC "-//W3C//DTD SVG 1.1//EN" "http://www.w3.org/Graphics/SVG/1.1/DTD/svg11.dtd">
<svg version="1.1" id="图层_1" xmlns="http://www.w3.org/2000/svg" xmlns:xlink="http://www.w3.org/1999/xlink" x="0px" y="0px"
	 width="16px" height="16px" viewBox="0 0 16 16" enable-background="new 0 0 16 16" xml:space="preserve">
<g id="Page-1_28_" sketch:type="MSPage">
	<g id="login_x5F_icon-_x28_4_x29__1_" transform="translate(-16.000000, -8.000000)" sketch:type="MSArtboardGroup">
		<g id="login_phone" transform="translate(12.000000, 6.000000)" sketch:type="MSLayerGroup">
			<path id="Shape_7_" sketch:type="MSShapeGroup" d="M15.131,2.005H8.869c-1.08,0-1.957,0.814-1.957,1.817v12.356
				c0,1.003,0.877,1.817,1.957,1.817h6.262c1.08,0,1.957-0.814,1.957-1.817V3.822C17.088,2.819,16.211,2.005,15.131,2.005
				L15.131,2.005z M12,17.268c-0.65,0-1.174-0.487-1.174-1.09c0-0.603,0.524-1.09,1.174-1.09c0.65,0,1.174,0.487,1.174,1.09
				C13.174,16.781,12.65,17.268,12,17.268L12,17.268z M15.522,14.361H8.478V4.185h7.045V14.361L15.522,14.361z"/>
		</g>
	</g>
</g>
</svg>
