<?xml version="1.0" encoding="utf-8"?>
<!-- Generator: Adobe Illustrator 17.0.0, SVG Export Plug-In . SVG Version: 6.00 Build 0)  -->
<!DOCTYPE svg PUBLIC "-//W3C//DTD SVG 1.1//EN" "http://www.w3.org/Graphics/SVG/1.1/DTD/svg11.dtd">
<svg version="1.1" id="图层_1" xmlns="http://www.w3.org/2000/svg" xmlns:xlink="http://www.w3.org/1999/xlink" x="0px" y="0px"
	 width="16px" height="16px" viewBox="0 0 16 16" enable-background="new 0 0 16 16" xml:space="preserve">
<g>
	<path d="M8,7.1c1.9,0,3.4-1.5,3.4-3.4c0-1.9-1.5-3.4-3.4-3.4S4.6,1.8,4.6,3.7C4.6,5.6,6.1,7.1,8,7.1z M8,1.3c1.3,0,2.4,1.1,2.4,2.4
		C10.4,5,9.3,6.1,8,6.1C6.7,6.1,5.6,5,5.6,3.7C5.6,2.4,6.7,1.3,8,1.3z"/>
	<path d="M14.7,13.7C14.2,10,11.4,7.3,8,7.3c-3.4,0-6.2,2.7-6.7,6.4l0,0.3l0.3,0.2c0.1,0.1,2.4,1.6,6.5,1.6c4.1,0,6.4-1.5,6.5-1.6
		l0.3-0.2L14.7,13.7z M8,14.7c-3,0-4.9-0.9-5.6-1.2c0.5-3,2.8-5.2,5.6-5.2c2.8,0,5.1,2.1,5.6,5.2C12.9,13.8,11,14.7,8,14.7z"/>
</g>
</svg>
