<?xml version="1.0" encoding="utf-8"?>
<!-- Generator: Adobe Illustrator 17.0.0, SVG Export Plug-In . SVG Version: 6.00 Build 0)  -->
<!DOCTYPE svg PUBLIC "-//W3C//DTD SVG 1.1//EN" "http://www.w3.org/Graphics/SVG/1.1/DTD/svg11.dtd">
<svg version="1.1" id="图层_1" xmlns="http://www.w3.org/2000/svg" xmlns:xlink="http://www.w3.org/1999/xlink" x="0px" y="0px"
	 width="16px" height="16px" viewBox="0 0 16 16" enable-background="new 0 0 16 16" xml:space="preserve">
<g>
	<path fill="#272635" d="M5.6,2.6c0-0.4,0.4-0.8,0.8-0.8h3.2c0.4,0,0.8,0.4,0.8,0.8v0.8H12V2.6c0-1.3-1.1-2.4-2.4-2.4H6.4
		C5.1,0.2,4,1.3,4,2.6v0.8h1.6V2.6L5.6,2.6L5.6,2.6z M14.4,4.4H1.6C0.7,4.4,0,5.1,0,6v8.2c0,0.9,0.7,1.6,1.6,1.6h12.8
		c0.9,0,1.6-0.7,1.6-1.6V6C16,5.1,15.3,4.4,14.4,4.4L14.4,4.4L14.4,4.4z M8,14.2c-2.2,0-3.9-1.8-3.9-4.1c0-2.2,1.7-4,3.9-4
		c2.2,0,3.9,1.8,3.9,4.1C11.9,12.4,10.2,14.2,8,14.2L8,14.2L8,14.2z M8.8,7.6H7.2v1.6H5.6v1.6h1.6v1.6h1.6v-1.6h1.6V9.2H8.8V7.6
		L8.8,7.6z M8.8,7.6"/>
</g>
</svg>
