<?xml version="1.0" encoding="utf-8"?>
<!-- Generator: Adobe Illustrator 17.0.0, SVG Export Plug-In . SVG Version: 6.00 Build 0)  -->
<!DOCTYPE svg PUBLIC "-//W3C//DTD SVG 1.1//EN" "http://www.w3.org/Graphics/SVG/1.1/DTD/svg11.dtd">
<svg version="1.1" id="图层_1" xmlns="http://www.w3.org/2000/svg" xmlns:xlink="http://www.w3.org/1999/xlink" x="0px" y="0px"
	 width="16px" height="16px" viewBox="0 0 16 16" enable-background="new 0 0 16 16" xml:space="preserve">
<g>
	<path fill="#272635" d="M14.7,14.8v-1.2h-0.8V7.2h0.8l0-1.1h0.6c0,0,0,0,0,0c0.2,0,0.4-0.2,0.4-0.4c0-0.1-0.1-0.3-0.2-0.3L8.2,0.2
		c-0.1-0.1-0.3-0.1-0.5,0L0.3,5.5C0.2,5.6,0.2,5.7,0.2,5.9C0.3,6,0.4,6.1,0.6,6.1h0.7l0,1.1h0.8v6.4H1.3v1.2H0.1v1.2h15.8v-1.2H14.7
		L14.7,14.8L14.7,14.8z M3.9,7.2h1.6v6.4H3.9V7.2L3.9,7.2z M7.2,7.2h1.6v6.4H7.2V7.2L7.2,7.2z M10.6,7.2h1.6v6.4h-1.6V7.2L10.6,7.2z
		 M10.6,7.2"/>
</g>
</svg>
