<?xml version="1.0" encoding="utf-8"?>
<!-- Generator: Adobe Illustrator 17.0.0, SVG Export Plug-In . SVG Version: 6.00 Build 0)  -->
<!DOCTYPE svg PUBLIC "-//W3C//DTD SVG 1.1//EN" "http://www.w3.org/Graphics/SVG/1.1/DTD/svg11.dtd">
<svg version="1.1" id="图层_1" xmlns="http://www.w3.org/2000/svg" xmlns:xlink="http://www.w3.org/1999/xlink" x="0px" y="0px"
	 width="16px" height="16px" viewBox="0 0 16 16" enable-background="new 0 0 16 16" xml:space="preserve">
<g>
	<path fill="#272635" d="M4.5,8.9l2.3-2.3L1.1,0.8c-1.3,1.3-1.3,3.4,0,4.7L4.5,8.9L4.5,8.9L4.5,8.9z M10.1,7.4
		c1.3,0.6,3,0.2,4.4-1.1c1.6-1.6,1.9-3.8,0.7-5.1C14,0,11.7,0.3,10.1,1.9C8.8,3.2,8.4,5,9,6.3l-8.1,8.1l1.2,1.2l5.7-5.7l5.7,5.7
		l1.2-1.2L8.9,8.7L10.1,7.4L10.1,7.4L10.1,7.4z M10.1,7.4"/>
</g>
</svg>
