<?xml version="1.0" encoding="utf-8"?>
<!-- Generator: Adobe Illustrator 17.0.0, SVG Export Plug-In . SVG Version: 6.00 Build 0)  -->
<!DOCTYPE svg PUBLIC "-//W3C//DTD SVG 1.1//EN" "http://www.w3.org/Graphics/SVG/1.1/DTD/svg11.dtd">
<svg version="1.1" id="图层_1" xmlns="http://www.w3.org/2000/svg" xmlns:xlink="http://www.w3.org/1999/xlink" x="0px" y="0px"
	 width="16px" height="16px" viewBox="0 0 16 16" enable-background="new 0 0 16 16" xml:space="preserve">
<g>
	<path fill="#272635" d="M1.3,11.8c0,0.7,0.3,1.4,0.8,1.9v1.5C2.1,15.6,2.5,16,3,16h0.8c0.5,0,0.8-0.4,0.8-0.8v-0.8h6.7v0.8
		c0,0.5,0.4,0.8,0.8,0.8H13c0.5,0,0.8-0.4,0.8-0.8v-1.5c0.5-0.5,0.8-1.1,0.8-1.9V3.4c0-2.9-3-3.3-6.7-3.3S1.3,0.5,1.3,3.4V11.8
		L1.3,11.8L1.3,11.8z M4.2,12.6C3.5,12.6,3,12,3,11.3c0-0.7,0.6-1.3,1.3-1.3c0.7,0,1.3,0.6,1.3,1.3C5.5,12,4.9,12.6,4.2,12.6
		L4.2,12.6L4.2,12.6z M11.8,12.6c-0.7,0-1.3-0.6-1.3-1.3c0-0.7,0.6-1.3,1.3-1.3c0.7,0,1.3,0.6,1.3,1.3C13,12,12.5,12.6,11.8,12.6
		L11.8,12.6L11.8,12.6z M13,7.6H3V3.4h10V7.6L13,7.6L13,7.6z M13,7.6"/>
</g>
</svg>
