<?xml version="1.0" encoding="utf-8"?>
<!-- Generator: Adobe Illustrator 17.0.0, SVG Export Plug-In . SVG Version: 6.00 Build 0)  -->
<!DOCTYPE svg PUBLIC "-//W3C//DTD SVG 1.1//EN" "http://www.w3.org/Graphics/SVG/1.1/DTD/svg11.dtd">
<svg version="1.1" id="图层_1" xmlns="http://www.w3.org/2000/svg" xmlns:xlink="http://www.w3.org/1999/xlink" x="0px" y="0px"
	 width="16px" height="16px" viewBox="0 0 16 16" enable-background="new 0 0 16 16" xml:space="preserve">
<g>
	<path fill="#272635" d="M11.7,6.1L8.6,1C8.5,0.8,8.2,0.7,8,0.7C7.8,0.7,7.5,0.8,7.4,1L4.3,6.1H0.8c-0.4,0-0.7,0.3-0.7,0.8
		c0,0.1,0,0.1,0,0.2L2,14.2c0.2,0.6,0.7,1.1,1.4,1.1h9.3c0.7,0,1.2-0.5,1.4-1.1L15.9,7l0-0.2c0-0.4-0.3-0.8-0.7-0.8H11.7L11.7,6.1
		L11.7,6.1z M5.8,6.1L8,2.7l2.2,3.4H5.8L5.8,6.1L5.8,6.1z M8,12.2c-0.8,0-1.4-0.7-1.4-1.5S7.2,9.2,8,9.2c0.8,0,1.4,0.7,1.4,1.5
		S8.8,12.2,8,12.2L8,12.2L8,12.2z M8,12.2"/>
</g>
</svg>
