<?xml version="1.0" encoding="utf-8"?>
<!-- Generator: Adobe Illustrator 17.0.0, SVG Export Plug-In . SVG Version: 6.00 Build 0)  -->
<!DOCTYPE svg PUBLIC "-//W3C//DTD SVG 1.1//EN" "http://www.w3.org/Graphics/SVG/1.1/DTD/svg11.dtd">
<svg version="1.1" id="图层_1" xmlns="http://www.w3.org/2000/svg" xmlns:xlink="http://www.w3.org/1999/xlink" x="0px" y="0px"
	 width="16px" height="16px" viewBox="0 0 16 16" enable-background="new 0 0 16 16" xml:space="preserve">
<path d="M4.5,11.6v-0.4H10v0.4H4.5z M4.5,9.9V9.5H10v0.4H4.5z M4.5,8.4V8H10v0.4H4.5z M8,15.5c1.1,0,2.2-0.2,3.2-0.7h0V7
	c0-0.1,0-0.2-0.1-0.3c-0.1-0.1-0.2-0.1-0.3-0.1H3.6c-0.1,0-0.1,0-0.2,0C3.3,6.8,3.2,6.9,3.2,7v6.8C4.6,15,6.2,15.5,8,15.5z
	 M12.8,13.8V5.4c0-0.1-0.1-0.2-0.2-0.3c-0.1,0-0.1,0-0.2,0H5.2C5,5,4.9,5.2,4.9,5.4v0.9h5.9c0.4,0,0.7,0.3,0.7,0.8v7.6
	c0.2-0.1,0.4-0.2,0.4-0.2C12.2,14.3,12.4,14.1,12.8,13.8z M13.2,5.4v8.1c1.5-1.4,2.4-3.4,2.4-5.5c0-2-0.8-4-2.2-5.3
	C12,1.3,10,0.4,8,0.4S4.1,1.3,2.7,2.7C1.3,4,0.5,6,0.5,8c0,2.1,0.9,4.1,2.4,5.5V7c0-0.4,0.3-0.8,0.7-0.8h0.9V5.4
	c0-0.4,0.3-0.7,0.7-0.7h7.2c0.3,0,0.5,0.1,0.7,0.4C13.1,5.1,13.2,5.2,13.2,5.4z M13.6,2.4c1.4,1.4,2.3,3.5,2.3,5.6s-0.9,4.2-2.3,5.6
	c-1.4,1.4-3.5,2.3-5.6,2.3s-4.2-0.9-5.6-2.3C0.9,12.2,0.1,10.1,0.1,8s0.9-4.2,2.3-5.6C3.8,0.9,5.9,0.1,8,0.1
	C10.2,0.1,12.2,0.9,13.6,2.4z"/>
</svg>
