<?xml version="1.0" encoding="utf-8"?>
<!-- Generator: Adobe Illustrator 17.0.0, SVG Export Plug-In . SVG Version: 6.00 Build 0)  -->
<!DOCTYPE svg PUBLIC "-//W3C//DTD SVG 1.1//EN" "http://www.w3.org/Graphics/SVG/1.1/DTD/svg11.dtd">
<svg version="1.1" id="图层_1" xmlns="http://www.w3.org/2000/svg" xmlns:xlink="http://www.w3.org/1999/xlink" x="0px" y="0px"
	 width="16px" height="16px" viewBox="0 0 16 16" enable-background="new 0 0 16 16" xml:space="preserve">
<path fill="#272636" d="M13.212,1.346c0-0.7-0.5-1.301-1.201-1.301l-10.806,0c-0.7,0-1.201,0.6-1.201,1.301v13.307
	c0,0.7,0.5,1.301,1.201,1.301h10.806c0.7,0,1.201-0.6,1.201-1.301v-3.502c0-0.7-0.3-0.8-0.7-0.3l-1.401,1.801
	c-0.1,0.2-0.4,0.4-0.6,0.5l-2.401,1.201c-0.6,0.3-0.9,0-0.7-0.6l0.8-2.501c0.1-0.2,0.2-0.5,0.3-0.7l4.502-6.303
	c0.1-0.2,0.2-0.5,0.2-0.7V1.346L13.212,1.346z M2.206,3.648c0-0.2,0.2-0.4,0.4-0.4h7.904c0.2,0,0.4,0.2,0.4,0.4v0.5
	c0,0.2-0.2,0.4-0.4,0.4H2.606c-0.2,0-0.4-0.2-0.4-0.4L2.206,3.648L2.206,3.648z M2.206,6.649c0-0.2,0.2-0.4,0.4-0.4H9.11
	c0.2,0,0.4,0.2,0.4,0.4v0.5c0,0.2-0.2,0.4-0.4,0.4H2.606c-0.2,0-0.4-0.2-0.4-0.4L2.206,6.649L2.206,6.649z M2.206,9.551
	c0-0.2,0.2-0.4,0.4-0.4h4.903c0.2,0,0.4,0.2,0.4,0.4v0.5c0,0.2-0.2,0.4-0.4,0.4H2.606c-0.2,0-0.4-0.2-0.4-0.4L2.206,9.551
	L2.206,9.551z M15.814,4.948c0.3-0.4,0.2-0.9-0.1-1.201l-0.3-0.2c-0.3-0.3-0.8-0.2-1.101,0.1L9.11,10.952c-0.1,0.2-0.3,0.5-0.4,0.7
	l-0.3,0.9c-0.2,0.6,0.1,0.9,0.7,0.5l0.8-0.4c0.2-0.1,0.5-0.4,0.6-0.5L15.814,4.948L15.814,4.948z"/>
</svg>
