<?xml version="1.0" encoding="utf-8"?>
<!-- Generator: Adobe Illustrator 17.0.0, SVG Export Plug-In . SVG Version: 6.00 Build 0)  -->
<!DOCTYPE svg PUBLIC "-//W3C//DTD SVG 1.1//EN" "http://www.w3.org/Graphics/SVG/1.1/DTD/svg11.dtd">
<svg version="1.1" id="图层_1" xmlns="http://www.w3.org/2000/svg" xmlns:xlink="http://www.w3.org/1999/xlink" x="0px" y="0px"
	 width="16px" height="16px" viewBox="0 0 16 16" enable-background="new 0 0 16 16" xml:space="preserve">
<g>
	<path fill="#272635" d="M9.4,1.2C9.2,1,8.9,0.8,8.5,0.8l-0.1,0c-0.3,0-0.6,0.1-1,0.4c0,0-0.2,0.1-0.3,0.2C6.9,1.5,6.7,1.6,6.4,1.8
		C6.2,2,5.9,2.2,5.6,2.4C5.3,2.7,4.9,2.9,4.6,3.2C3.9,3.7,3.1,4.3,2.3,4.9H1.6c-0.9,0-1.5,0.6-1.5,1.3v0.1v3.4c0,0.4,0.2,0.7,0.5,1
		c0.3,0.2,0.6,0.4,1.1,0.4h0.3c0.1,0,0.2,0,0.3,0c0,0,0.1,0,0.1,0c0.5,0.4,1,0.8,1.5,1.1c0.5,0.4,1,0.8,1.6,1.2
		C6,13.9,6.5,14.3,7,14.7c0.4,0.3,0.8,0.5,1.1,0.5c0,0,0.1,0,0.1,0c0.3,0,0.6-0.1,0.8-0.3c0.2-0.2,0.4-0.4,0.5-0.7
		c0.1-0.3,0.1-0.5,0.1-0.7V2.7c0-0.2,0-0.4-0.1-0.7C9.6,1.7,9.5,1.4,9.4,1.2L9.4,1.2L9.4,1.2z M15.7,6.7c-0.1-0.4-0.3-0.8-0.5-1.2
		c-0.2-0.4-0.5-0.7-0.8-1c-0.3-0.3-0.6-0.6-1-0.8c-0.1-0.1-0.3-0.2-0.4-0.2c-0.2,0-0.3,0.1-0.5,0.2c-0.1,0.1-0.2,0.3-0.2,0.5
		c0,0.2,0.1,0.4,0.3,0.6c0.5,0.4,1,0.8,1.3,1.4c0.3,0.6,0.5,1.2,0.5,1.9c0,0.3,0,0.7-0.1,1c-0.1,0.3-0.2,0.6-0.4,0.9
		c-0.2,0.3-0.4,0.5-0.6,0.8c-0.2,0.2-0.5,0.4-0.7,0.6l0,0c0,0,0,0,0,0c0,0,0,0,0,0c-0.2,0.1-0.2,0.3-0.2,0.5c0,0.2,0.1,0.3,0.2,0.5
		c0.1,0.1,0.3,0.2,0.5,0.2c0.1,0,0.3,0,0.4-0.1c0.3-0.2,0.7-0.5,1-0.8c0.3-0.3,0.5-0.7,0.8-1c0.2-0.4,0.4-0.8,0.5-1.2
		c0.1-0.4,0.2-0.9,0.2-1.3C15.9,7.5,15.9,7.1,15.7,6.7L15.7,6.7L15.7,6.7z M12.2,9.8c0.2-0.2,0.3-0.5,0.5-0.8c0.1-0.3,0.2-0.6,0.2-1
		c0-0.4-0.1-0.7-0.2-1c-0.1-0.3-0.3-0.5-0.5-0.8C12.2,6.1,12.1,6,12,5.9c-0.1-0.1-0.2-0.1-0.3-0.1c-0.2,0-0.3,0.1-0.4,0.2
		c-0.1,0.1-0.2,0.3-0.2,0.4c0,0.1,0,0.2,0,0.2c0,0.1,0.1,0.2,0.2,0.3c0.1,0.1,0.1,0.2,0.2,0.3c0.1,0.1,0.1,0.2,0.2,0.3
		c0,0.1,0.1,0.3,0.1,0.4c0,0.2,0,0.3-0.1,0.5c0,0.1-0.1,0.2-0.2,0.3c-0.1,0.1-0.1,0.2-0.2,0.3c-0.1,0.1-0.1,0.2-0.2,0.3h0
		c0,0.1,0,0.1,0,0.2c0,0.2,0.1,0.3,0.2,0.4c0.1,0.1,0.3,0.2,0.4,0.2c0.1,0,0.2,0,0.3-0.1C12.1,10,12.2,9.9,12.2,9.8L12.2,9.8
		L12.2,9.8z M12.2,9.8"/>
</g>
</svg>
