<?xml version="1.0" encoding="utf-8"?>
<!-- Generator: Adobe Illustrator 17.0.0, SVG Export Plug-In . SVG Version: 6.00 Build 0)  -->
<!DOCTYPE svg PUBLIC "-//W3C//DTD SVG 1.1//EN" "http://www.w3.org/Graphics/SVG/1.1/DTD/svg11.dtd">
<svg version="1.1" id="图层_1" xmlns="http://www.w3.org/2000/svg" xmlns:xlink="http://www.w3.org/1999/xlink" x="0px" y="0px"
	 width="16px" height="16px" viewBox="0 0 16 16" enable-background="new 0 0 16 16" xml:space="preserve">
<g>
	<path fill="#272636" d="M0.954,5.302c-0.3,0-0.5,0.2-0.7,0.4c-0.2,0.2-0.2,0.5-0.2,0.8l0.3,2.598c0,0.3,0.2,0.5,0.4,0.7
		c0.2,0.1,0.4,0.2,0.7,0.2l0.999-0.1l-0.4-4.697L0.954,5.302L0.954,5.302z M15.745,6.401l-0.3-1.799c-0.1-0.6-0.3-1.199-0.5-1.799
		c-0.2-0.6-0.4-1.099-0.7-1.499c-0.3-0.5-0.6-0.799-0.899-0.999c-0.3-0.3-0.6-0.3-0.999-0.3c-0.4,0.1-0.8,0.4-1.199,0.899
		c-0.4,0.5-0.899,0.899-1.499,1.299c-0.5,0.3-1.099,0.6-1.699,0.899c-0.6,0.2-1.199,0.4-1.699,0.6c-0.6,0.2-1.099,0.3-1.599,0.5
		c-0.5,0.1-0.8,0.3-1.099,0.4c-0.3,0.1-0.5,0.3-0.5,0.4l0.6,5.197c0.1,0.1,0.3,0.2,0.7,0.2c0.4,0,0.8,0.1,1.399,0.1
		c0.6,0,1.199,0,1.899,0.1c0.7,0,1.299,0.1,1.999,0.2c0.7,0.1,1.299,0.2,1.899,0.4c0.6,0.2,0.999,0.5,1.399,0.799
		c0.4,0.3,0.7,0.5,0.999,0.5c0.3,0,0.6-0.1,0.8-0.3c0.2-0.2,0.5-0.5,0.6-0.899c0.2-0.4,0.3-0.899,0.4-1.399
		c0.1-0.5,0.2-1.099,0.2-1.699C15.845,7.6,15.845,7.001,15.745,6.401L15.745,6.401z M5.651,11.198l-1.399-0.1c-0.1,0-0.2,0-0.2,0.1
		c-0.1,0.1-0.1,0.2-0.1,0.2c0,0.1,0,2.299,0.999,4.097c0,0,0,0.1,0.1,0.1c0.2,0.3,0.5,0.4,0.899,0.4c0.4,0,0.8-0.1,0.8-0.1
		c0.2-0.1,0.3-0.2,0.2-0.4l-0.999-3.998C5.951,11.298,5.851,11.198,5.651,11.198L5.651,11.198z M5.651,11.198"/>
</g>
</svg>
