<?xml version="1.0" encoding="utf-8"?>
<!-- Generator: Adobe Illustrator 17.0.0, SVG Export Plug-In . SVG Version: 6.00 Build 0)  -->
<!DOCTYPE svg PUBLIC "-//W3C//DTD SVG 1.1//EN" "http://www.w3.org/Graphics/SVG/1.1/DTD/svg11.dtd">
<svg version="1.1" id="图层_1" xmlns="http://www.w3.org/2000/svg" xmlns:xlink="http://www.w3.org/1999/xlink" x="0px" y="0px"
	 width="16px" height="16px" viewBox="0 0 16 16" enable-background="new 0 0 16 16" xml:space="preserve">
<path d="M11.7,9.9H4.2c-0.5,0-0.7,0.3-0.7,0.6c0,0.4,0.3,0.6,0.7,0.6h7.5c0.5,0,0.7-0.3,0.7-0.6C12.5,10.2,12.2,9.9,11.7,9.9z
	 M11.7,6.7H4.2c-0.5,0-0.7,0.3-0.7,0.6s0.3,0.6,0.7,0.6h7.5c0.5,0,0.7-0.3,0.7-0.6S12.2,6.7,11.7,6.7z M11.7,3.7H4.3
	C3.8,3.7,3.6,4,3.6,4.3s0.3,0.6,0.7,0.6h7.5c0.5,0,0.7-0.3,0.7-0.6S12.2,3.7,11.7,3.7z M6.2,1.3h3.5c0.5,0,0.9-0.3,0.9-0.5
	c0-0.4-0.3-0.6-0.9-0.6H6.2c-0.6,0-0.8,0.2-0.8,0.6C5.4,1.1,5.7,1.3,6.2,1.3z M13.6,0.1h-1.2c-0.4,0-0.6,0.3-0.6,0.6
	c0,0.3,0.3,0.5,0.6,0.5h1c0.8,0,1.2,0.3,1.2,0.9v11.2c0,0.8-0.4,1.3-1.1,1.3H2.5c-0.7,0-1.2-0.5-1.2-1.2l0-11.3c0-0.7,0.4-1,1.1-1
	h1.2C4,1.2,4.3,1,4.3,0.7c0-0.4-0.2-0.7-0.6-0.7H2.4C0.9,0.1,0.2,0.7,0.2,2.2v11.3c0,1.5,0.9,2.4,2.3,2.4h10.8
	c1.6,0,2.4-0.8,2.4-2.4V2.4c0-1.2-0.2-1.7-0.8-2C14.7,0.2,14.2,0.1,13.6,0.1z"/>
</svg>
