<?xml version="1.0" encoding="utf-8"?>
<!-- Generator: Adobe Illustrator 17.0.0, SVG Export Plug-In . SVG Version: 6.00 Build 0)  -->
<!DOCTYPE svg PUBLIC "-//W3C//DTD SVG 1.1//EN" "http://www.w3.org/Graphics/SVG/1.1/DTD/svg11.dtd">
<svg version="1.1" id="图层_1" xmlns="http://www.w3.org/2000/svg" xmlns:xlink="http://www.w3.org/1999/xlink" x="0px" y="0px"
	 width="16px" height="16px" viewBox="0 0 16 16" enable-background="new 0 0 16 16" xml:space="preserve">
<path d="M9.5,7.4L13,1.4c0.2-0.4,0.2-1-0.3-1.2c-0.6-0.3-1.2,0-1.4,0.4l-2.1,4C9,4.9,8.3,6.3,8,7C7.6,6.1,6.5,4,4.7,0.6
	C4.5,0.3,3.8-0.1,3.2,0.3C2.8,0.6,2.9,1.4,3,1.4l3.4,5.9H3.8C3.3,7.4,3,7.6,3,8.1c0,0.4,0.4,0.7,0.8,0.7h3.1C6.9,8.9,7,8.9,7,9v2
	c0,0.1,0,0.1-0.1,0.1H3.8c-0.4,0-0.8,0.4-0.8,0.8s0.4,0.8,0.8,0.8h3c0.1,0,0.1,0,0.1,0.1v2.3c0,0.1,0,0.2,0.1,0.4
	c0.2,0.3,0.4,0.4,0.7,0.4h0.4c0.1,0,0.3,0,0.4-0.1c0.3-0.2,0.4-0.4,0.4-0.7v-2.2c0,0,0,0,0-0.1l0.1,0h3c0.4,0,0.8-0.4,0.8-0.8
	c0-0.4-0.4-0.8-0.8-0.8H9c-0.1,0-0.1,0-0.1-0.1v-2c0,0,0,0,0-0.1L9,9h3c0.4,0,0.8-0.4,0.8-0.8c0-0.3-0.2-0.5-0.4-0.7
	c-0.1-0.1-0.3-0.1-0.4-0.1H9.5z"/>
</svg>
