<?xml version="1.0" encoding="utf-8"?>
<!-- Generator: Adobe Illustrator 17.0.0, SVG Export Plug-In . SVG Version: 6.00 Build 0)  -->
<!DOCTYPE svg PUBLIC "-//W3C//DTD SVG 1.1//EN" "http://www.w3.org/Graphics/SVG/1.1/DTD/svg11.dtd">
<svg version="1.1" id="图层_1" xmlns="http://www.w3.org/2000/svg" xmlns:xlink="http://www.w3.org/1999/xlink" x="0px" y="0px"
	 width="16px" height="16px" viewBox="0 0 16 16" enable-background="new 0 0 16 16" xml:space="preserve">
<g>
	<path fill="#272636" d="M8,0.01C3.606,0.01,0.01,3.606,0.01,8c0,4.394,3.596,7.99,7.99,7.99c4.394,0,7.99-3.596,7.99-7.99
		C15.99,3.606,12.394,0.01,8,0.01L8,0.01z M8,14.692c-3.695,0-6.792-2.996-6.792-6.792c0-3.695,2.996-6.792,6.792-6.792
		c3.695,0,6.792,2.996,6.792,6.792C14.692,11.695,11.695,14.692,8,14.692L8,14.692z M8,14.692"/>
	<path fill="#272636" d="M10.397,7.401L6.302,5.104c-0.2-0.1-0.499-0.1-0.699,0c-0.2,0.1-0.3,0.3-0.3,0.499v4.694
		c0,0.2,0.1,0.499,0.3,0.599c0.2,0.1,0.499,0.1,0.699,0l4.095-2.397c0.2-0.1,0.3-0.3,0.3-0.599
		C10.697,7.7,10.597,7.501,10.397,7.401L10.397,7.401z M10.397,7.401"/>
</g>
</svg>
