<?xml version="1.0" encoding="utf-8"?>
<!-- Generator: Adobe Illustrator 17.0.0, SVG Export Plug-In . SVG Version: 6.00 Build 0)  -->
<!DOCTYPE svg PUBLIC "-//W3C//DTD SVG 1.1//EN" "http://www.w3.org/Graphics/SVG/1.1/DTD/svg11.dtd">
<svg version="1.1" id="图层_1" xmlns="http://www.w3.org/2000/svg" xmlns:xlink="http://www.w3.org/1999/xlink" x="0px" y="0px"
	 width="16px" height="16px" viewBox="0 0 16 16" enable-background="new 0 0 16 16" xml:space="preserve">
<path fill="#272636" d="M1.055,9.199c-0.6,1.399-0.7,2.798-0.2,2.998c0.3,0.2,0.899-0.2,1.299-0.899
	c0.2,0.799,0.7,1.499,1.299,2.099c-0.7,0.3-1.199,0.7-1.199,1.199c0,0.799,1.299,1.399,2.798,1.399c1.399,0,2.598-0.5,2.798-1.199
	c0.1,0,0.3,0,0.3,0c0.2,0.7,1.399,1.199,2.798,1.199c1.599,0,2.798-0.6,2.798-1.399c0-0.5-0.5-0.899-1.199-1.199
	c0.7-0.6,1.199-1.299,1.299-2.099c0.5,0.7,0.999,1.099,1.299,0.899c0.5-0.3,0.4-1.599-0.2-2.998c-0.5-1.099-1.099-1.899-1.599-2.099
	c0-0.1,0-0.1,0-0.2c0-0.4-0.1-0.799-0.3-1.099v-0.1c0-0.2,0-0.4-0.1-0.5c0.1-2.898-1.799-5.197-4.797-5.197S3.253,2.304,3.153,5.202
	c-0.1,0.1-0.2,0.3-0.2,0.5v0.1c-0.2,0.3-0.3,0.7-0.3,1.099c0,0.1,0,0.1,0,0.2C2.254,7.3,1.554,8.1,1.055,9.199L1.055,9.199z"/>
</svg>
