<?xml version="1.0" encoding="utf-8"?>
<!-- Generator: Adobe Illustrator 17.0.0, SVG Export Plug-In . SVG Version: 6.00 Build 0)  -->
<!DOCTYPE svg PUBLIC "-//W3C//DTD SVG 1.1//EN" "http://www.w3.org/Graphics/SVG/1.1/DTD/svg11.dtd">
<svg version="1.1" id="图层_1" xmlns="http://www.w3.org/2000/svg" xmlns:xlink="http://www.w3.org/1999/xlink" x="0px" y="0px"
	 width="16px" height="16px" viewBox="0 0 16 16" enable-background="new 0 0 16 16" xml:space="preserve">
<path fill="#272635" d="M15.9,6H9.9l2.2-2.2C11,2.7,9.5,2.1,7.9,2.1S4.8,2.7,3.7,3.8S2,6.4,2,8s0.6,3.1,1.7,4.2s2.6,1.7,4.2,1.7
	s3.1-0.6,4.2-1.7c0.1-0.1,0.2-0.2,0.3-0.3l1.5,1.3C12.5,14.9,10.3,16,8,16c-4.3,0-8-3.5-8-8s3.5-8,8-8c2.2,0,4.1,0.9,5.6,2.3L16,0V6
	H15.9z"/>
</svg>
