<?xml version="1.0" encoding="utf-8"?>
<!-- Generator: Adobe Illustrator 17.0.0, SVG Export Plug-In . SVG Version: 6.00 Build 0)  -->
<!DOCTYPE svg PUBLIC "-//W3C//DTD SVG 1.1//EN" "http://www.w3.org/Graphics/SVG/1.1/DTD/svg11.dtd">
<svg version="1.1" id="图层_1" xmlns="http://www.w3.org/2000/svg" xmlns:xlink="http://www.w3.org/1999/xlink" x="0px" y="0px"
	 width="16px" height="16px" viewBox="0 0 16 16" enable-background="new 0 0 16 16" xml:space="preserve">
<g>
	<path fill="#231815" d="M12.5,0.8l-3.2,0c0-0.4-0.3-0.7-0.6-0.7l-1.4,0C7,0.2,6.7,0.5,6.7,0.8l-3.2,0c-0.7,0-1.3,0.6-1.3,1.3
		l11.6,0C13.8,1.5,13.2,0.8,12.5,0.8"/>
	<path fill="#231815" d="M3.1,14.6c0,0.7,0.5,1.3,1.1,1.3h7.7c0.6,0,1.1-0.6,1.1-1.3V3.3h-10V14.6z M10.5,5.4h1.4v9h-1.4V5.4z
		 M7.4,5.4h1.4v9H7.4V5.4z M4.4,5.4h1.4v9H4.4V5.4z"/>
</g>
</svg>
