<?xml version="1.0" encoding="utf-8"?>
<!-- Generator: Adobe Illustrator 17.0.0, SVG Export Plug-In . SVG Version: 6.00 Build 0)  -->
<!DOCTYPE svg PUBLIC "-//W3C//DTD SVG 1.1//EN" "http://www.w3.org/Graphics/SVG/1.1/DTD/svg11.dtd">
<svg version="1.1" id="图层_1" xmlns="http://www.w3.org/2000/svg" xmlns:xlink="http://www.w3.org/1999/xlink" x="0px" y="0px"
	 width="16px" height="16px" viewBox="0 0 16 16" enable-background="new 0 0 16 16" xml:space="preserve">
<g>
	<path fill="#272636" d="M11.67,0.025L8.915,0.589C8.858,0.23,8.587-0.016,8.313,0.04L7.08,0.292
		C6.807,0.348,6.629,0.686,6.687,1.045L3.932,1.609C3.323,1.732,2.92,2.42,3.035,3.135l9.95-2.036
		C12.87,0.383,12.278-0.1,11.67,0.025L11.67,0.025z M11.67,0.025"/>
	<path fill="#272636" d="M3.637,14.756c0,0.682,0.45,1.239,1,1.239h6.727c0.55,0,1-0.558,1-1.239V3.639H3.637V14.756L3.637,14.756z
		 M10.085,5.652h1.244v8.839h-1.244V5.652L10.085,5.652z M7.417,5.652h1.244v8.839H7.417V5.652L7.417,5.652z M4.771,5.652h1.244
		v8.839H4.771V5.652L4.771,5.652z M4.771,5.652"/>
</g>
</svg>
