<?xml version="1.0" encoding="utf-8"?>
<!-- Generator: Adobe Illustrator 17.0.0, SVG Export Plug-In . SVG Version: 6.00 Build 0)  -->
<!DOCTYPE svg PUBLIC "-//W3C//DTD SVG 1.1//EN" "http://www.w3.org/Graphics/SVG/1.1/DTD/svg11.dtd">
<svg version="1.1" id="图层_1" xmlns="http://www.w3.org/2000/svg" xmlns:xlink="http://www.w3.org/1999/xlink" x="0px" y="0px"
	 width="16px" height="16px" viewBox="0 0 16 16" enable-background="new 0 0 16 16" xml:space="preserve">
<path fill="#272636" d="M15.815,6.987L8.322,0.743C8.306,0.73,8.289,0.727,8.273,0.716c-0.03-0.018-0.056-0.034-0.087-0.047
	C8.154,0.657,8.125,0.649,8.093,0.642C8.062,0.637,8.032,0.633,7.999,0.633c-0.032,0-0.062,0.005-0.094,0.009
	C7.872,0.649,7.844,0.657,7.813,0.669C7.782,0.681,7.755,0.697,7.726,0.718C7.711,0.727,7.692,0.73,7.677,0.743L0.185,6.987
	c-0.196,0.163-0.237,0.446-0.1,0.659l1.389,2.134c0.073,0.11,0.188,0.189,0.319,0.217c0.132,0.026,0.268,0,0.378-0.072l0.49-0.32
	l1.101,5.361c0.047,0.233,0.253,0.401,0.492,0.401h7.492c0.239,0,0.445-0.167,0.493-0.401l1.1-5.361l0.49,0.32
	c0.111,0.072,0.249,0.096,0.379,0.072c0.132-0.029,0.245-0.108,0.319-0.217l1.389-2.134C16.052,7.433,16.008,7.15,15.815,6.987
	L15.815,6.987z M7.999,9.607c-1.23,0-2.232-1.003-2.232-2.233c0-1.231,1.001-2.233,2.232-2.233c1.231,0,2.233,1.001,2.233,2.233
	C10.232,8.604,9.231,9.607,7.999,9.607L7.999,9.607z"/>
</svg>
