<?xml version="1.0" encoding="utf-8"?>
<!-- Generator: Adobe Illustrator 17.0.0, SVG Export Plug-In . SVG Version: 6.00 Build 0)  -->
<!DOCTYPE svg PUBLIC "-//W3C//DTD SVG 1.1//EN" "http://www.w3.org/Graphics/SVG/1.1/DTD/svg11.dtd">
<svg version="1.1" id="图层_1" xmlns="http://www.w3.org/2000/svg" xmlns:xlink="http://www.w3.org/1999/xlink" x="0px" y="0px"
	 width="16px" height="16px" viewBox="0 0 16 16" enable-background="new 0 0 16 16" xml:space="preserve">
<g>
	<path fill="#272636" d="M4.455,6.475L3.327,7.607l4.05,4.04l8.554-8.156l-1.104-1.158l-7.425,7.08L4.455,6.475L4.455,6.475z
		 M14.362,8.798c-0.396,3.152-3.086,5.597-6.341,5.597c-3.526,0-6.395-2.87-6.395-6.395c0-3.528,2.87-6.397,6.395-6.397
		c1.133,0,2.196,0.3,3.12,0.818l1.165-1.163C11.064,0.467,9.598,0.005,8.02,0.005C3.606,0.005,0.025,3.584,0.025,8
		c0,4.414,3.581,7.995,7.995,7.995c4.146,0,7.553-3.156,7.954-7.196L14.362,8.798L14.362,8.798z M14.362,8.798"/>
</g>
</svg>
