<?xml version="1.0" encoding="utf-8"?>
<!-- Generator: Adobe Illustrator 17.0.0, SVG Export Plug-In . SVG Version: 6.00 Build 0)  -->
<!DOCTYPE svg PUBLIC "-//W3C//DTD SVG 1.1//EN" "http://www.w3.org/Graphics/SVG/1.1/DTD/svg11.dtd">
<svg version="1.1" id="图层_1" xmlns="http://www.w3.org/2000/svg" xmlns:xlink="http://www.w3.org/1999/xlink" x="0px" y="0px"
	 width="16px" height="16px" viewBox="0 0 16 16" enable-background="new 0 0 16 16" xml:space="preserve">
<path fill="#272636" d="M15.813,6.987L8.322,0.742c-0.015-0.011-0.034-0.016-0.05-0.026C8.243,0.697,8.216,0.681,8.186,0.669
	c-0.03-0.011-0.061-0.019-0.092-0.026C8.062,0.637,8.032,0.633,8,0.633c-0.032,0-0.063,0.005-0.094,0.009
	C7.874,0.649,7.844,0.657,7.813,0.669c-0.03,0.013-0.058,0.029-0.087,0.048C7.71,0.726,7.693,0.731,7.678,0.742L0.187,6.987
	c-0.196,0.162-0.24,0.446-0.1,0.659L1.475,9.78c0.073,0.11,0.188,0.189,0.319,0.217c0.132,0.026,0.267,0,0.378-0.072l0.49-0.32
	l1.1,5.361c0.048,0.233,0.253,0.401,0.493,0.401h7.491c0.238,0,0.445-0.167,0.492-0.401l1.1-5.361l0.491,0.32
	c0.111,0.072,0.248,0.096,0.379,0.072c0.132-0.029,0.244-0.108,0.318-0.217l1.388-2.134C16.053,7.433,16.01,7.149,15.813,6.987
	L15.813,6.987z M10.207,8.263v0.754H8.499v0.58h1.708v0.754H8.499v1.895H7.501v-1.895H5.793V9.598h1.708v-0.58H5.793V8.263h1.322
	L5.347,5.388h0.985L8,8.035l1.668-2.647h0.985L8.884,8.263H10.207L10.207,8.263z"/>
</svg>
