<?xml version="1.0" encoding="utf-8"?>
<!-- Generator: Adobe Illustrator 17.0.0, SVG Export Plug-In . SVG Version: 6.00 Build 0)  -->
<!DOCTYPE svg PUBLIC "-//W3C//DTD SVG 1.1//EN" "http://www.w3.org/Graphics/SVG/1.1/DTD/svg11.dtd">
<svg version="1.1" id="图层_1" xmlns="http://www.w3.org/2000/svg" xmlns:xlink="http://www.w3.org/1999/xlink" x="0px" y="0px"
	 width="16px" height="16px" viewBox="0 0 16 16" enable-background="new 0 0 16 16" xml:space="preserve">
<path fill="#272635" d="M15,3.5h-3V3.3c0-0.8-0.5-1.4-1.3-1.4H5.3C4.5,1.9,4,2.5,4,3.3v0.1l-3,0c-0.5,0-0.9,0.4-0.9,0.9v8.9
	c0,0.5,0.4,0.9,0.9,0.9l14,0c0.5,0,0.9-0.4,0.9-0.9V4.4C15.9,3.9,15.5,3.5,15,3.5L15,3.5z M8,12.7c-2.3,0-4.1-1.8-4.1-4.1
	S5.7,4.5,8,4.5s4.1,1.8,4.1,4.1S10.3,12.7,8,12.7L8,12.7z M5.2,8.6C5.2,7,6.5,5.8,8,5.8s2.8,1.3,2.8,2.8S9.6,11.5,8,11.5
	S5.2,10.2,5.2,8.6L5.2,8.6L5.2,8.6z"/>
</svg>
