<?xml version="1.0" encoding="utf-8"?>
<!-- Generator: Adobe Illustrator 17.0.0, SVG Export Plug-In . SVG Version: 6.00 Build 0)  -->
<!DOCTYPE svg PUBLIC "-//W3C//DTD SVG 1.1//EN" "http://www.w3.org/Graphics/SVG/1.1/DTD/svg11.dtd">
<svg version="1.1" id="图层_1" xmlns="http://www.w3.org/2000/svg" xmlns:xlink="http://www.w3.org/1999/xlink" x="0px" y="0px"
	 width="16px" height="16px" viewBox="0 0 16 16" enable-background="new 0 0 16 16" xml:space="preserve">
<g>
	<path fill="#272636" d="M2.718,6.794H5.13v2.412l-2.412,0V6.794z M6.838,6.794H9.25v2.412l-2.412,0V6.794z M10.857,6.794h2.412
		v2.412h-2.412L10.857,6.794z M2.819,10.613H5.23v2.412H2.819V10.613z M6.838,10.613H9.25l0,2.412H6.838V10.613z M10.857,10.613
		h2.412l0,2.412h-2.412L10.857,10.613z"/>
	<path fill="#272636" d="M14.977,1.87h-1.909V0.363c0-0.201-0.1-0.301-0.301-0.301H11.36c-0.201,0-0.301,0.1-0.301,0.301V1.87H5.029
		V0.363c0-0.201-0.1-0.301-0.301-0.301l-1.407,0c-0.1,0-0.301,0.1-0.301,0.301V1.87H1.11c-0.603,0-1.105,0.502-1.105,1.105v11.857
		c0,0.603,0.502,1.105,1.105,1.105h13.766c0.603,0,1.105-0.502,1.105-1.105l0-11.857C16.083,2.373,15.58,1.87,14.977,1.87
		L14.977,1.87z M14.676,14.431c0,0.1-0.1,0.201-0.201,0.201l-12.963,0c-0.1,0-0.201-0.1-0.201-0.201V5.287
		c0-0.1,0.1-0.201,0.201-0.201h12.963c0.1,0,0.201,0.1,0.201,0.201L14.676,14.431L14.676,14.431z"/>
</g>
</svg>
