<?xml version="1.0" encoding="utf-8"?>
<!-- Generator: Adobe Illustrator 17.0.0, SVG Export Plug-In . SVG Version: 6.00 Build 0)  -->
<!DOCTYPE svg PUBLIC "-//W3C//DTD SVG 1.1//EN" "http://www.w3.org/Graphics/SVG/1.1/DTD/svg11.dtd">
<svg version="1.1" id="图层_1" xmlns="http://www.w3.org/2000/svg" xmlns:xlink="http://www.w3.org/1999/xlink" x="0px" y="0px"
	 width="16px" height="16px" viewBox="0 0 16 16" enable-background="new 0 0 16 16" xml:space="preserve">
<path id="Page-1" sketch:type="MSShapeGroup" fill="#272635" d="M8.5,8.5h2.1V7.8c-0.1,0-0.2,0-0.4,0C9.6,7.8,9,8,8.5,8.5L8.5,8.5z
	 M7.8,10.3c0,0.1,0,0.2,0,0.4h2.9V9.9H7.8C7.8,10,7.8,10.2,7.8,10.3L7.8,10.3z M6.3,3.4H2.7v0.7h3.6V3.4z M10.3,13.6
	c-1.8,0-3.3-1.5-3.3-3.3S8.5,7,10.3,7s3.3,1.5,3.3,3.3S12.1,13.6,10.3,13.6L10.3,13.6z M10.3,6.3c-2.2,0-4,1.8-4,4c0,2.2,1.8,4,4,4
	c2.2,0,4-1.8,4-4C14.3,8.1,12.5,6.3,10.3,6.3L10.3,6.3z M15.8,15.2l-1.9-1.9c-0.2,0.2-0.3,0.4-0.5,0.5l1.9,1.9
	c0.1,0.1,0.4,0.1,0.5,0C15.9,15.6,15.9,15.4,15.8,15.2L15.8,15.2z M2.7,6.3h3.6V5.6H2.7V6.3z M8.8,1.5L12,4.9H9.6
	c-0.4,0-0.7-0.3-0.7-0.7V1.5L8.8,1.5z M1.6,13.2c-0.4,0-0.7-0.3-0.7-0.7V1.6c0-0.4,0.3-0.7,0.7-0.7h6.5v3.3c0,0.8,0.6,1.5,1.5,1.5
	h2.7c0.1,0,0.2,0.1,0.2,0.2v0.3c0.3,0.1,0.5,0.3,0.7,0.5v-1c0-0.2-0.1-0.6-0.3-0.8l-4-4.3C8.7,0.3,8.4,0.1,8.2,0.1H7.6H7.2H7H1.6
	c-0.8,0-1.5,0.6-1.5,1.5v10.9c0,0.8,0.6,1.5,1.5,1.5h5.7c-0.3-0.2-0.5-0.5-0.7-0.7H1.6z M2.7,9.9v0.7h2.9c0-0.1,0-0.2,0-0.4
	c0-0.1,0-0.2,0-0.4H2.7z M2.7,7.8v0.7h3.3C6,8.2,6.2,8,6.3,7.8H2.7z"/>
</svg>
