<?xml version="1.0" encoding="utf-8"?>
<!-- Generator: Adobe Illustrator 17.0.0, SVG Export Plug-In . SVG Version: 6.00 Build 0)  -->
<!DOCTYPE svg PUBLIC "-//W3C//DTD SVG 1.1//EN" "http://www.w3.org/Graphics/SVG/1.1/DTD/svg11.dtd">
<svg version="1.1" id="图层_1" xmlns="http://www.w3.org/2000/svg" xmlns:xlink="http://www.w3.org/1999/xlink" x="0px" y="0px"
	 width="16px" height="16px" viewBox="0 0 16 16" enable-background="new 0 0 16 16" xml:space="preserve">
<path fill="#070001" d="M15.1,6.5h-1c-0.3,0-0.6-0.2-0.7-0.5l-0.2-0.6c-0.1-0.3,0-0.6,0.2-0.8l0.7-0.7c0.3-0.3,0.3-0.8,0-1.1l-1-1
	c-0.3-0.3-0.8-0.3-1.1,0l-0.7,0.7c-0.2,0.2-0.5,0.3-0.8,0.2L9.9,2.6C9.7,2.5,9.4,2.2,9.4,1.9v-1c0-0.4-0.3-0.8-0.7-0.8H8H7.2
	c-0.4,0-0.7,0.4-0.7,0.8v1c0,0.3-0.2,0.6-0.5,0.7L5.4,2.8c-0.3,0.1-0.6,0-0.8-0.2L3.9,2C3.6,1.7,3.1,1.7,2.8,2l-1,1
	C1.5,3.2,1.5,3.7,1.8,4l0.7,0.7c0.2,0.2,0.3,0.5,0.2,0.8L2.5,5.9C2.4,6.2,2.1,6.5,1.8,6.5h-1C0.4,6.5,0,6.8,0,7.2v1.5
	c0,0.4,0.3,0.8,0.8,0.8h1c0.3,0,0.6,0.2,0.7,0.5l0.2,0.6c0.1,0.3,0,0.6-0.2,0.8l-0.7,0.7c-0.3,0.3-0.3,0.8,0,1.1l1,1
	c0.3,0.3,0.8,0.3,1.1,0l0.7-0.7c0.2-0.2,0.5-0.3,0.8-0.2L6,13.4c0.3,0.1,0.5,0.4,0.5,0.7v1c0,0.4,0.3,0.8,0.8,0.8H8h0.8
	c0.4,0,0.8-0.3,0.8-0.8v-1c0-0.3,0.2-0.6,0.5-0.7l0.6-0.2c0.3-0.1,0.6,0,0.8,0.2l0.7,0.7c0.3,0.3,0.8,0.3,1.1,0l1-1
	c0.3-0.3,0.3-0.8,0-1.1l-0.7-0.7c-0.2-0.2-0.3-0.5-0.2-0.8l0.2-0.6c0.1-0.3,0.4-0.5,0.7-0.5h1c0.4,0,0.8-0.3,0.8-0.8V7.2
	C15.9,6.8,15.5,6.5,15.1,6.5z M8,11c-1.7,0-3-1.4-3-3s1.3-3,3-3s3,1.4,3,3S9.7,11,8,11z"/>
</svg>
