<?xml version="1.0" encoding="utf-8"?>
<!-- Generator: Adobe Illustrator 17.0.0, SVG Export Plug-In . SVG Version: 6.00 Build 0)  -->
<!DOCTYPE svg PUBLIC "-//W3C//DTD SVG 1.1//EN" "http://www.w3.org/Graphics/SVG/1.1/DTD/svg11.dtd">
<svg version="1.1" id="图层_1" xmlns="http://www.w3.org/2000/svg" xmlns:xlink="http://www.w3.org/1999/xlink" x="0px" y="0px"
	 width="16px" height="16px" viewBox="0 0 16 16" enable-background="new 0 0 16 16" xml:space="preserve">
<g id="Page-1_61_" sketch:type="MSPage">
	<g id="else_3_" transform="translate(-41.000000, -8.000000)" sketch:type="MSArtboardGroup">
		<g id="detail_share_1_" transform="translate(38.000000, 6.000000)" sketch:type="MSLayerGroup">
			<path id="Shape_1_" sketch:type="MSShapeGroup" d="M14.243,13.925L8.52,10.594c0.04-0.185,0.072-0.369,0.072-0.562
				c0-0.193-0.032-0.377-0.072-0.562l5.659-3.299c0.433,0.401,1.003,0.65,1.638,0.65c1.332,0,2.408-1.076,2.408-2.408
				s-1.076-2.408-2.408-2.408c-1.333,0-2.408,1.076-2.408,2.408c0,0.193,0.032,0.377,0.072,0.562L7.821,8.274
				c-0.433-0.401-1.003-0.65-1.638-0.65c-1.333,0-2.408,1.076-2.408,2.408s1.076,2.408,2.408,2.408c0.634,0,1.204-0.249,1.638-0.65
				l5.715,3.339c-0.04,0.169-0.064,0.345-0.064,0.522c0,1.292,1.052,2.344,2.344,2.344c1.292,0,2.344-1.052,2.344-2.344
				s-1.052-2.344-2.344-2.344C15.206,13.307,14.66,13.548,14.243,13.925z"/>
		</g>
	</g>
</g>
</svg>
