<?xml version="1.0" encoding="utf-8"?>
<!-- Generator: Adobe Illustrator 17.0.0, SVG Export Plug-In . SVG Version: 6.00 Build 0)  -->
<!DOCTYPE svg PUBLIC "-//W3C//DTD SVG 1.1//EN" "http://www.w3.org/Graphics/SVG/1.1/DTD/svg11.dtd">
<svg version="1.1" id="图层_1" xmlns="http://www.w3.org/2000/svg" xmlns:xlink="http://www.w3.org/1999/xlink" x="0px" y="0px"
	 width="16px" height="16px" viewBox="0 0 16 16" enable-background="new 0 0 16 16" xml:space="preserve">
<path fill="#272636" d="M15.955,6.024c-0.101-0.302-0.302-0.504-0.604-0.504l-4.733-0.504l-1.913-4.33
	c-0.201-0.504-1.108-0.504-1.41,0l-1.913,4.33L0.649,5.52c-0.302,0-0.504,0.201-0.604,0.504c-0.101,0.302,0,0.604,0.201,0.806
	l3.525,3.222l-1.007,4.632c-0.101,0.302,0.101,0.604,0.302,0.806c0.201,0.201,0.604,0.201,0.806,0L8,13.174l4.129,2.417
	c0.101,0.101,0.201,0.101,0.403,0.101s0.302,0,0.403-0.101c0.201-0.201,0.403-0.504,0.302-0.806l-1.007-4.632l3.525-3.222
	C15.955,6.628,16.056,6.326,15.955,6.024z"/>
</svg>
