<?xml version="1.0" encoding="utf-8"?>
<!-- Generator: Adobe Illustrator 17.0.0, SVG Export Plug-In . SVG Version: 6.00 Build 0)  -->
<!DOCTYPE svg PUBLIC "-//W3C//DTD SVG 1.1//EN" "http://www.w3.org/Graphics/SVG/1.1/DTD/svg11.dtd">
<svg version="1.1" id="图层_1" xmlns="http://www.w3.org/2000/svg" xmlns:xlink="http://www.w3.org/1999/xlink" x="0px" y="0px"
	 width="16px" height="16px" viewBox="0 0 16 16" enable-background="new 0 0 16 16" xml:space="preserve">
<g>
	<path fill="#272635" d="M14.1,0.1H1.9c-1,0-1.8,0.8-1.8,1.8v12.3c0,1,0.8,1.8,1.8,1.8h12.3c1,0,1.8-0.8,1.8-1.8V1.9
		C15.9,0.9,15.1,0.1,14.1,0.1L14.1,0.1L14.1,0.1z M1.9,1.7h12.3c0.1,0,0.2,0.1,0.2,0.2v3.3H1.7V1.9C1.7,1.8,1.8,1.7,1.9,1.7L1.9,1.7
		L1.9,1.7z M1.7,14.1V6.7h4.1v7.7H1.9C1.8,14.3,1.7,14.2,1.7,14.1L1.7,14.1L1.7,14.1z M14.1,14.3H7.3V6.7h7.1v7.5
		C14.3,14.2,14.2,14.3,14.1,14.3L14.1,14.3L14.1,14.3z M14.1,14.3"/>
</g>
</svg>
