<?xml version="1.0" encoding="utf-8"?>
<!-- Generator: Adobe Illustrator 17.0.0, SVG Export Plug-In . SVG Version: 6.00 Build 0)  -->
<!DOCTYPE svg PUBLIC "-//W3C//DTD SVG 1.1//EN" "http://www.w3.org/Graphics/SVG/1.1/DTD/svg11.dtd">
<svg version="1.1" id="图层_1" xmlns="http://www.w3.org/2000/svg" xmlns:xlink="http://www.w3.org/1999/xlink" x="0px" y="0px"
	 width="16px" height="16px" viewBox="0 0 16 16" enable-background="new 0 0 16 16" xml:space="preserve">
<path fill="#272636" d="M8.049,0.005c-3.698,0-6.696,0.4-6.696,3.398v7.995c0,1.599,1.299,2.898,2.898,2.898l-1.199,1.299v0.4h9.994
	v-0.4l-1.299-1.299c1.599,0,2.898-1.299,2.898-2.898V3.403C14.745,0.405,11.746,0.005,8.049,0.005L8.049,0.005z M4.251,12.597
	c-0.7,0-1.199-0.6-1.199-1.299c0-0.7,0.6-1.299,1.299-1.299s1.299,0.6,1.299,1.299C5.55,11.998,4.951,12.597,4.251,12.597
	L4.251,12.597z M7.249,7.6H3.052V3.403h4.197V7.6L7.249,7.6z M11.846,12.597c-0.7,0-1.299-0.6-1.299-1.299
	c0-0.7,0.6-1.299,1.299-1.299c0.7,0,1.299,0.6,1.299,1.299C13.046,11.998,12.546,12.597,11.846,12.597L11.846,12.597z M13.046,7.6
	H8.848V3.403h4.197V7.6L13.046,7.6z"/>
</svg>
