<?xml version="1.0" encoding="utf-8"?>
<!-- Generator: Adobe Illustrator 17.0.0, SVG Export Plug-In . SVG Version: 6.00 Build 0)  -->
<!DOCTYPE svg PUBLIC "-//W3C//DTD SVG 1.1//EN" "http://www.w3.org/Graphics/SVG/1.1/DTD/svg11.dtd">
<svg version="1.1" id="图层_1" xmlns="http://www.w3.org/2000/svg" xmlns:xlink="http://www.w3.org/1999/xlink" x="0px" y="0px"
	 width="16px" height="16px" viewBox="0 0 16 16" enable-background="new 0 0 16 16" xml:space="preserve">
<g>
	<path fill="#272636" d="M11.008,4.882L7.326,10.14L5.407,8.221c-0.269-0.269-0.682-0.261-0.943,0c-0.253,0.253-0.259,0.682,0,0.943
		l2.449,2.449c0.101,0.101,0.22,0.163,0.345,0.187c0.258,0.064,0.551-0.029,0.714-0.263l4.125-5.89
		c0.209-0.299,0.14-0.72-0.162-0.93C11.645,4.512,11.219,4.579,11.008,4.882L11.008,4.882z M8,0.005
		C3.584,0.005,0.005,3.584,0.005,8S3.584,15.995,8,15.995S15.995,12.416,15.995,8S12.416,0.005,8,0.005L8,0.005z M8,15.196
		c-3.973,0-7.196-3.222-7.196-7.196S4.027,0.804,8,0.804S15.196,4.027,15.196,8S11.974,15.196,8,15.196L8,15.196z M8,15.196"/>
</g>
</svg>
