<?xml version="1.0" encoding="utf-8"?>
<!-- Generator: Adobe Illustrator 17.0.0, SVG Export Plug-In . SVG Version: 6.00 Build 0)  -->
<!DOCTYPE svg PUBLIC "-//W3C//DTD SVG 1.1//EN" "http://www.w3.org/Graphics/SVG/1.1/DTD/svg11.dtd">
<svg version="1.1" id="图层_1" xmlns="http://www.w3.org/2000/svg" xmlns:xlink="http://www.w3.org/1999/xlink" x="0px" y="0px"
	 width="16px" height="16px" viewBox="0 0 16 16" enable-background="new 0 0 16 16" xml:space="preserve">
<g>
	<path fill="#272635" d="M13.7,9.5L13.7,9.5c-0.1,0-0.1,0-0.2,0c0,0,0,0,0,0c0,0-0.1,0-0.1,0c-0.1,0-0.3-0.1-0.4-0.1V13H3.1V9.3
		C2.9,9.4,2.8,9.4,2.7,9.4c0,0-0.1,0-0.1,0c0,0,0,0,0,0c-0.1,0-0.1,0-0.2,0v0c-0.1,0-0.2,0-0.2,0c-0.2,0-0.3,0-0.5,0v5.1
		c0,0.4,0.3,0.8,0.7,0.8h11.4c0.4,0,0.7-0.3,0.7-0.8V9.5c-0.2,0-0.3,0-0.5,0C13.8,9.5,13.8,9.5,13.7,9.5L13.7,9.5z M2.6,2.2h10.9
		c0.4,0,0.7-0.3,0.7-0.8c0-0.4-0.3-0.8-0.7-0.8H2.6C2.2,0.7,1.8,1,1.8,1.5C1.8,1.9,2.2,2.2,2.6,2.2L2.6,2.2z M14.5,3h-13L0.1,6.7
		c0,1.1,0.9,2,2,2s2-0.9,2-2c0,1.1,0.9,2,2,2s2-0.9,2-2c0,1.1,0.9,2,2,2c1.1,0,2-0.9,2-2c0,1.1,0.9,2,2,2s2-0.9,2-2L14.5,3L14.5,3z
		 M14.5,3"/>
</g>
</svg>
