<?xml version="1.0" encoding="utf-8"?>
<!-- Generator: Adobe Illustrator 17.0.0, SVG Export Plug-In . SVG Version: 6.00 Build 0)  -->
<!DOCTYPE svg PUBLIC "-//W3C//DTD SVG 1.1//EN" "http://www.w3.org/Graphics/SVG/1.1/DTD/svg11.dtd">
<svg version="1.1" id="图层_1" xmlns="http://www.w3.org/2000/svg" xmlns:xlink="http://www.w3.org/1999/xlink" x="0px" y="0px"
	 width="16px" height="16px" viewBox="0 0 16 16" enable-background="new 0 0 16 16" xml:space="preserve">
<path d="M14.1,12.2H2L5,8l1.8,2.5l3.6-4.8L14.1,12.2z M4.4,6.6c-0.7,0-1.2-0.5-1.2-1.2c0-0.5,0.2-0.8,0.6-1.1C4,4.3,4.2,4.2,4.4,4.2
	c0.7,0,1.2,0.6,1.2,1.2C5.6,6.1,5.1,6.6,4.4,6.6z M15,13v-10H1.2v10H15z M1.4,1.9h13.3c0.7,0,1.2,0.5,1.2,1c0,0.1,0,0.1,0,0.2v9.8
	c0,0.2,0,0.4-0.1,0.6c-0.2,0.4-0.6,0.6-1.1,0.6H1.3c-0.7,0-1.2-0.6-1.2-1.2V3.1C0.1,2.4,0.7,1.9,1.4,1.9z"/>
</svg>
