<?xml version="1.0" encoding="utf-8"?>
<!-- Generator: Adobe Illustrator 17.0.0, SVG Export Plug-In . SVG Version: 6.00 Build 0)  -->
<!DOCTYPE svg PUBLIC "-//W3C//DTD SVG 1.1//EN" "http://www.w3.org/Graphics/SVG/1.1/DTD/svg11.dtd">
<svg version="1.1" id="图层_1" xmlns="http://www.w3.org/2000/svg" xmlns:xlink="http://www.w3.org/1999/xlink" x="0px" y="0px"
	 width="16px" height="16px" viewBox="0 0 16 16" enable-background="new 0 0 16 16" xml:space="preserve">
<g id="Clip-2">
</g>
<g>
	<path fill="#272635" d="M15.6,12.6L9.5,1.8C9,1,8.4,0.8,8,0.8c-0.4,0-1,0.2-1.5,1L0.4,12.6C0.2,12.9,0,13.3,0,13.6
		c0,0.5,0.2,0.9,0.6,1.2c0.3,0.3,0.7,0.4,1.2,0.4h12.4c0.5,0,0.9-0.1,1.2-0.4c0.4-0.3,0.6-0.7,0.6-1.2C16,13.3,15.9,12.9,15.6,12.6z
		 M14.8,14c-0.2,0.1-0.4,0.2-0.6,0.2H1.8c-0.2,0-0.4-0.1-0.6-0.2C1.1,14,1,13.9,1,13.6c0-0.2,0.1-0.4,0.2-0.6L7.4,2.3
		C7.7,1.8,7.9,1.8,8,1.8c0.1,0,0.3,0,0.6,0.5l6.2,10.8c0.1,0.2,0.2,0.4,0.2,0.6C15,13.9,14.9,14,14.8,14z"/>
	<path fill="#272635" d="M7.2,7.5c0,0.1,0.1,0.3,0.1,0.4l0.3,2.2c0,0.1,0.1,0.1,0.1,0.1h0.6c0.1,0,0.1,0,0.1-0.1l0.3-2.2
		c0-0.1,0-0.2,0.1-0.4c0-0.2,0.1-0.3,0.1-0.4c0-0.1,0-0.2,0-0.4V4.8c0-0.1-0.1-0.2-0.2-0.2H7.3c-0.1,0-0.2,0.1-0.2,0.2v1.9
		c0,0.1,0,0.3,0,0.4C7.1,7.2,7.2,7.3,7.2,7.5z"/>
	<path fill="#272635" d="M8,11.3c-0.2,0-0.5,0.1-0.6,0.3c-0.2,0.2-0.3,0.4-0.3,0.7c0,0.3,0.1,0.5,0.3,0.7c0.2,0.2,0.4,0.3,0.6,0.3
		c0.3,0,0.5-0.1,0.7-0.3c0.2-0.2,0.3-0.4,0.3-0.7c0-0.3-0.1-0.5-0.3-0.7C8.5,11.4,8.2,11.3,8,11.3z"/>
</g>
</svg>
