<?xml version="1.0" encoding="utf-8"?>
<!-- Generator: Adobe Illustrator 17.0.0, SVG Export Plug-In . SVG Version: 6.00 Build 0)  -->
<!DOCTYPE svg PUBLIC "-//W3C//DTD SVG 1.1//EN" "http://www.w3.org/Graphics/SVG/1.1/DTD/svg11.dtd">
<svg version="1.1" id="图层_1" xmlns="http://www.w3.org/2000/svg" xmlns:xlink="http://www.w3.org/1999/xlink" x="0px" y="0px"
	 width="16px" height="16px" viewBox="0 0 16 16" enable-background="new 0 0 16 16" xml:space="preserve">
<g>
	<path fill="#272636" d="M13.158,6.728c0.201,0,0.401-0.1,0.401-0.301l0,0c0.301-2.708-2.407-2.307-2.407-2.307
		c-0.201,0-0.401,0.201-0.401,0.401c0,0.201,0.201,0.401,0.401,0.401c1.905-0.401,1.504,1.404,1.504,1.404
		C12.756,6.528,12.857,6.728,13.158,6.728z"/>
	<path fill="#272636" d="M12.857,2.015c-0.903-0.201-1.905,0-2.206,0c0,0,0,0-0.1,0l0,0c-0.301,0.1-0.501,0.301-0.501,0.602
		s0.301,0.602,0.602,0.602c0,0,0.301,0,0.602-0.1c0.201-0.1,2.206-0.1,3.109,1.504c0.501,1.203,0.201,2.006,0.201,2.106
		c0,0-0.1,0.301-0.1,0.602c0,0.301,0.301,0.602,0.602,0.602s0.501,0,0.602-0.501l0,0C16.868,3.92,14.461,2.316,12.857,2.015z"/>
	<path fill="#272636" d="M5.736,8.533C3.129,8.834,3.43,11.141,3.43,11.141s0,0.702,0.702,1.103
		c1.504,0.702,3.109,0.201,3.911-0.702C8.845,10.539,8.444,8.233,5.736,8.533z M5.135,11.743c-0.501,0.1-0.903-0.201-0.903-0.602
		c0-0.401,0.401-0.802,0.802-0.802c0.602-0.1,1.003,0.201,1.003,0.602C6.037,11.342,5.636,11.642,5.135,11.743z M6.639,10.439
		c-0.201,0.1-0.401,0.1-0.501,0c-0.1-0.1-0.1-0.401,0.1-0.501c0.201-0.1,0.401-0.1,0.501,0C6.839,10.138,6.839,10.339,6.639,10.439z
		"/>
	<path fill="#272636" d="M11.854,7.932c-0.602-0.1-0.301-0.401-0.301-0.401s0.602-0.903-0.1-1.605c-0.903-0.802-3.109,0.1-3.109,0.1
		c-0.903,0.201-0.602-0.1-0.501-0.702c0-0.702-0.301-1.905-2.507-1.203S1.223,7.23,1.223,7.23c-1.404,1.705-1.203,3.009-1.203,3.009
		c0.301,2.808,3.51,3.61,6.017,3.811c2.607,0.201,6.218-0.802,7.321-3.009S12.456,8.032,11.854,7.932z M6.338,13.147
		c-2.607,0.1-4.714-1.103-4.714-2.708S3.731,7.531,6.338,7.43s4.714,0.903,4.714,2.507S8.945,13.046,6.338,13.147z"/>
</g>
</svg>
