<?xml version="1.0" encoding="utf-8"?>
<!-- Generator: Adobe Illustrator 17.0.0, SVG Export Plug-In . SVG Version: 6.00 Build 0)  -->
<!DOCTYPE svg PUBLIC "-//W3C//DTD SVG 1.1//EN" "http://www.w3.org/Graphics/SVG/1.1/DTD/svg11.dtd">
<svg version="1.1" id="图层_1" xmlns="http://www.w3.org/2000/svg" xmlns:xlink="http://www.w3.org/1999/xlink" x="0px" y="0px"
	 width="16px" height="16px" viewBox="0 0 16 16" enable-background="new 0 0 16 16" xml:space="preserve">
<g>
	<path fill="#272636" d="M15.99,9.848c0-2.197-2.297-3.995-4.794-3.995c-2.697,0-4.794,1.798-4.794,3.995s2.097,3.995,4.794,3.995
		c0.599,0,1.099-0.1,1.698-0.3l1.598,0.799l-0.499-1.298C15.091,12.145,15.99,11.046,15.99,9.848z M9.598,9.149
		c-0.3,0-0.599-0.3-0.599-0.599c0.1-0.2,0.3-0.499,0.599-0.499c0.399,0,0.699,0.3,0.699,0.599C10.297,8.849,9.998,9.149,9.598,9.149
		z M12.694,9.149c-0.3,0-0.599-0.3-0.599-0.599s0.3-0.599,0.599-0.599c0.399,0,0.699,0.3,0.699,0.599S13.193,9.149,12.694,9.149z"/>
	<path fill="#272636" d="M10.797,5.553c0.2,0,0.399,0,0.499,0c-0.499-2.197-2.896-3.895-5.693-3.895
		C2.507,1.758,0.01,3.755,0.01,6.352c0,1.498,0.799,2.796,2.297,3.695l-0.599,1.698l1.997-0.999c0.699,0.2,1.298,0.3,1.997,0.3
		c0.2,0,0.4,0,0.499,0c-0.1-0.399-0.2-0.699-0.2-1.099C6.003,7.451,8.1,5.553,10.797,5.553z M7.8,4.055
		c0.399,0,0.699,0.3,0.699,0.699c0,0.4-0.3,0.699-0.699,0.699s-0.799-0.3-0.799-0.699C6.901,4.355,7.401,4.055,7.8,4.055z
		 M3.805,5.453c-0.399,0-0.799-0.3-0.799-0.699c0-0.399,0.4-0.699,0.799-0.699s0.699,0.3,0.699,0.699
		C4.504,5.154,4.205,5.453,3.805,5.453z"/>
</g>
</svg>
