<?xml version="1.0" standalone="no"?>
<!DOCTYPE svg PUBLIC "-//W3C//DTD SVG 1.1//EN" "http://www.w3.org/Graphics/SVG/1.1/DTD/svg11.dtd" >
<svg xmlns="http://www.w3.org/2000/svg">
<metadata>
Created by FontForge 20120731 at Mon Jun  6 16:24:28 2016
 By admin
</metadata>
<defs>
<font id="iconfont" horiz-adv-x="1024" >
  <font-face 
    font-family="iconfont"
    font-weight="500"
    font-stretch="normal"
    units-per-em="1024"
    panose-1="2 0 6 3 0 0 0 0 0 0"
    ascent="896"
    descent="-128"
    x-height="792"
    bbox="-0.125 -131 1030 896"
    underline-thickness="50"
    underline-position="-100"
    unicode-range="U+0078-D702"
  />
<missing-glyph horiz-adv-x="374" 
d="M34 0v682h272v-682h-272zM68 34h204v614h-204v-614z" />
    <glyph glyph-name=".notdef" horiz-adv-x="374" 
d="M34 0v682h272v-682h-272zM68 34h204v614h-204v-614z" />
    <glyph glyph-name=".null" horiz-adv-x="0" 
 />
    <glyph glyph-name="nonmarkingreturn" horiz-adv-x="341" 
 />
    <glyph glyph-name="x" unicode="x" horiz-adv-x="1001" 
d="M281 543q-27 -1 -53 -1h-83q-18 0 -36.5 -6t-32.5 -18.5t-23 -32t-9 -45.5v-76h912v41q0 16 -0.5 30t-0.5 18q0 13 -5 29t-17 29.5t-31.5 22.5t-49.5 9h-133v-97h-438v97zM955 310v-52q0 -23 0.5 -52t0.5 -58t-10.5 -47.5t-26 -30t-33 -16t-31.5 -4.5q-14 -1 -29.5 -0.5
t-29.5 0.5h-32l-45 128h-439l-44 -128h-29h-34q-20 0 -45 1q-25 0 -41 9.5t-25.5 23t-13.5 29.5t-4 30v167h911zM163 247q-12 0 -21 -8.5t-9 -21.5t9 -21.5t21 -8.5q13 0 22 8.5t9 21.5t-9 21.5t-22 8.5zM316 123q-8 -26 -14 -48q-5 -19 -10.5 -37t-7.5 -25t-3 -15t1 -14.5
t9.5 -10.5t21.5 -4h37h67h81h80h64h36q23 0 34 12t2 38q-5 13 -9.5 30.5t-9.5 34.5q-5 19 -11 39h-368zM336 498v228q0 11 2.5 23t10 21.5t20.5 15.5t34 6h188q31 0 51.5 -14.5t20.5 -52.5v-227h-327z" />
    <glyph glyph-name="uniD310" unicode="&#xd310;" 
d="M512 883q-101 0 -193.5 -39.5t-159.5 -106.5t-106.5 -159.5t-39.5 -193.5t39.5 -193.5t106.5 -159.5t159.5 -106.5t193.5 -39.5t193.5 39.5t159.5 106.5t106.5 159.5t39.5 193.5t-39.5 193.5t-106.5 159.5t-159.5 106.5t-193.5 39.5zM512 -38q-114 0 -211 55.5t-154 153
t-57 213.5q0 114 55.5 211t153 154t213.5 57q114 0 211 -55.5t154 -153t57 -213.5t-57 -213.5t-154 -153t-211 -55.5zM224 486q0 30 22 53.5t55 23.5t55 -21.5t22 -55.5q0 -33 -24.5 -54.5t-59.5 -21.5q-32 0 -51 23t-19 53zM666 486q0 45 38 64.5t76.5 0t38.5 -64
t-38.5 -64t-76.5 -0.5q-16 11 -27 28.5t-11 35.5zM365 186q54 -45 147 -45q69 0 147 45q27 18 51 -7q18 -27 -6 -51q-85 -64 -192 -64q-51 0 -98.5 17t-93.5 47q-14 9 -15.5 25.5t9.5 25.5q10 10 25.5 13t25.5 -6z" />
    <glyph glyph-name="uniD311" unicode="&#xd311;" 
d="M243 454q53 -118 136.5 -213t190.5 -158l108 122q23 22 52 13q96 -32 179 -32q19 0 35 -17.5t16 -40.5v-192q0 -25 -14 -41.5t-37 -16.5q-115 0 -224.5 34.5t-202.5 96t-171 150t-132 193t-84.5 228t-30.5 252.5q0 25 14 41.5t37 16.5h173q20 0 35.5 -17.5t15.5 -40.5
q0 -70 26 -198q8 -26 -13 -58z" />
    <glyph glyph-name="uniD312" unicode="&#xd312;" 
d="M512 883q-101 0 -193.5 -39.5t-159.5 -106.5t-106.5 -159.5t-39.5 -193.5t39.5 -193.5t106.5 -159.5t159.5 -106.5t193.5 -39.5t193.5 39.5t159.5 106.5t106.5 159.5t39.5 193.5t-39.5 193.5t-106.5 159.5t-159.5 106.5t-193.5 39.5zM512 -38q-114 0 -211 55.5t-154 153
t-57 213.5q0 114 55.5 211t153 154t213.5 57q114 0 211 -55.5t154 -153t57 -213.5t-57 -213.5t-154 -153t-211 -55.5zM224 486q0 30 22 53.5t55 23.5t55 -21.5t22 -55.5q0 -33 -24.5 -54.5t-59.5 -21.5q-32 0 -51 23t-19 53zM666 486q0 45 38 64.5t76.5 0t38.5 -64
t-38.5 -64t-76.5 -0.5q-16 11 -27 28.5t-11 35.5zM365 64q54 45 147 45q69 0 147 -45q27 -18 51 6q18 27 -6 52q-85 64 -192 64q-51 0 -98.5 -17t-93.5 -47q-14 -10 -15.5 -26t9.5 -26q10 -10 25.5 -12.5t25.5 6.5z" />
    <glyph glyph-name="uniD401" unicode="&#xd401;" 
d="M979 627l-19 13q-15 14 -32 11.5t-32 -17.5l-307 -423q-2 -4 -7.5 -13.5t-8.5 -15.5t-3 -9l-13 -51q-10 -29 2 -38t36 6l45 25q21 11 32 32l314 416q10 9 8.5 29.5t-15.5 34.5zM800 0q0 -18 -11.5 -28t-26.5 -10h-628q-14 0 -26 12t-12 26v768q0 18 11.5 28t26.5 10h634
q14 0 26 -12t12 -26v-128h64v128q0 44 -29.5 76.5t-72.5 32.5h-634q-43 0 -72.5 -30.5t-29.5 -78.5v-768q0 -44 30 -76.5t72 -32.5h634q43 0 72.5 32.5t29.5 76.5v205h-64v-205h-6zM704 608v26q0 9 -8 17t-18 8h-460q-10 0 -18 -8t-8 -17v-32q0 -10 8 -18t18 -8h460
q26 13 26 32zM621 429v32q0 9 -8 17t-18 8h-377q-9 -4 -13 -6.5t-8.5 -7.5t-4.5 -11v-32q0 -10 8 -18t18 -8h377q9 4 13 7t8.5 8t4.5 11zM218 314q-10 0 -18 -8t-8 -18v-32q0 -10 8 -18t18 -8h288q9 0 17 8t8 18v32q0 10 -8 18t-17 8h-288z" />
    <glyph glyph-name="uniD407" unicode="&#xd407;" 
d="M666 525l-231 -307l-115 160l-192 -263h768zM282 467q33 0 54.5 21.5t21.5 55.5q0 30 -22 53.5t-54 23.5q-34 0 -55.5 -21.5t-21.5 -55.5t21.5 -55.5t55.5 -21.5zM934 64h-857v640h877v-640h-20zM934 768h-844q-35 0 -59.5 -22t-24.5 -55v-621q0 -30 22.5 -53t54.5 -23
h851q34 0 55.5 21.5t21.5 54.5v621q5 33 -18.5 55t-58.5 22z" />
    <glyph glyph-name="uniD412" unicode="&#xd412;" 
d="M710 384l-454 -461q-19 -19 0 -38q15 -15 45 0l467 473q13 13 13 26t-13 26l-474 473q-9 10 -22 10t-22 -10q-11 -4 -9.5 -16.5t15.5 -21.5zM710 384z" />
    <glyph glyph-name="uniD413" unicode="&#xd413;" 
d="M941 410l-474 473q-14 10 -27 10t-18 -10q-9 -9 -9 -22t9 -23l461 -454l-461 -461q-19 -19 0 -38q15 -15 45 0l474 473q13 13 13 26q-3 5 -5 10.5t-3.5 9t-4.5 6.5zM614 384q0 13 -12 26l-474 473q-10 10 -22.5 10t-22 -9.5t-9.5 -22.5t9 -23l461 -454l-461 -461
q-19 -19 0 -38q10 -10 25 -10t20 10l474 473q12 13 12 26z" />
    <glyph glyph-name="uniD414" unicode="&#xd414;" 
d="M512 365l-320 307l-134 -134l454 -442l454 442l-134 134z" />
    <glyph glyph-name="uniD415" unicode="&#xd415;" 
d="M832 96l134 134l-454 442l-454 -442l134 -134l320 307z" />
    <glyph glyph-name="uniD600" unicode="&#xd600;" 
d="M1011 22l-458 759q-19 19 -38 19t-37 -19l-458 -759q-5 -10 -5 -22.5t5 -21.5q9 -19 37 -19h922q11 0 22.5 5t15.5 14q0 31 -6 44zM95 22l420 696l421 -696h-841zM471 122q0 -18 13 -31t31 -13t31 13t13 31t-13 31t-31 13t-31 -13t-13 -31zM471 543l13 -308q0 -9 4 -17
t8 -8h32q5 0 8.5 8t3.5 17l13 308q0 9 -4 17t-9 8h-56q-13 -13 -13 -25z" />
    <glyph glyph-name="uniD602" unicode="&#xd602;" 
d="M512.5 483q85.5 0 146 60.5t60.5 146.5q0 85 -60.5 145.5t-146.5 60.5t-146 -60.5t-60 -146t60.5 -146t146 -60.5zM512 399q-110 0 -205 -54t-156.5 -151t-76.5 -217q7 -4 19 -11.5t54 -25.5t89 -31.5t122 -25t154 -11.5t153 11t123.5 26t87.5 31t55.5 26t17.5 11
q-14 120 -75.5 217t-156.5 151t-205 54z" />
    <glyph glyph-name="uniD603" unicode="&#xd603;" 
d="M512 896q-139 0 -257 -68.5t-186.5 -186.5t-68.5 -257t68.5 -257t186.5 -186.5t257 -68.5t257 68.5t186.5 186.5t68.5 257t-68.5 257t-186.5 186.5t-257 68.5zM529 698.5q24 26.5 66 26.5q33 0 50.5 -18t17.5 -47q0 -34 -26.5 -60t-64.5 -26q-33 0 -50.5 17.5t-16.5 49.5
q0 31 24 57.5zM549.5 74.5q-62.5 -31.5 -94.5 -31.5q-68 0 -37 121l41 174q9 38 0 38q-8 0 -37 -12q-29 -13 -49 -26l-18 30q62 53 129 86q68 32 103 32q53 0 25 -110l-48 -182q-11 -43 4 -43q30 0 80 40l21 -27q-57 -58 -119.5 -89.5z" />
    <glyph glyph-name="uniD604" unicode="&#xd604;" 
d="M1019 510q-6 19 -22 32t-36 16l-266 40l-116 240q-9 19 -27 30t-39.5 11t-40 -11t-27.5 -30l-115 -240l-266 -40q-21 -3 -37 -16t-22 -32q-15 -42 17 -73l195 -195l-45 -270q-4 -20 4.5 -39t25.5 -31q19 -13 42 -13q19 0 36 9l232 125l232 -125q17 -9 36 -9q23 0 42 13
q17 12 25.5 31t4.5 39l-45 270l195 195q32 31 17 73zM759 297l-32 -31l7 -44l44 -260l-266 143l-41 -22l-225 -121l51 304l-218 217l301 45l132 274l132 -274l45 -7l256 -38z" />
    <glyph glyph-name="uniD605" unicode="&#xd605;" 
d="M761 625q0 111 -72 187.5t-177 76.5t-177 -76.5t-72 -187.5q0 -42 26 -104t62.5 -121.5t73 -113.5t61.5 -87l26 -32q10 12 27 34t59.5 83.5t75.5 116t60 118.5t27 106zM388 663.5q0 52.5 36 88.5t88 36t88 -36t36 -88.5t-36 -88.5t-88 -36t-88 36t-36 88.5zM962 469h-124
q-17 0 -28 -10.5t-11 -28t11 -28t28 -10.5h86v-420h-816v412h86q17 0 27.5 10.5t10.5 28t-10.5 28.5t-27.5 11h-133q-17 0 -27.5 -11t-10.5 -28v-505q0 -18 10.5 -28.5t27.5 -10.5h901q18 0 28.5 10.5t10.5 28.5v513q0 17 -10.5 27.5t-28.5 10.5z" />
    <glyph glyph-name="uniD606" unicode="&#xd606;" 
d="M635 196v700h-205v-700h-205l307 -324l308 324h-205zM635 196z" />
    <glyph glyph-name="uniD60A" unicode="&#xd60a;" 
d="M723 595q-12 13 -30 12.5t-30 -12.5l-151 -151l-151 151q-12 12 -30 12.5t-30 -12.5q-12 -12 -12.5 -30t12.5 -30l151 -151l-151 -151q-12 -12 -12 -30t12 -30q12 -13 30 -12.5t30 12.5l151 151l151 -151q12 -12 30 -12.5t30 12.5q12 12 12.5 30t-12.5 30l-151 151
l151 151q12 12 12 30t-12 30zM512 896q-139 0 -257 -68.5t-186.5 -186.5t-68.5 -257t68.5 -257t186.5 -186.5t257 -68.5t257 68.5t186.5 186.5t68.5 257t-68.5 257t-186.5 186.5t-257 68.5zM512 -77q-94 0 -179 36.5t-147 98.5t-98.5 147t-36.5 179t36.5 179t98.5 147
t147 98.5t179 36.5t179 -36.5t147 -98.5t98.5 -147t36.5 -179t-36.5 -179t-98.5 -147t-147 -98.5t-179 -36.5z" />
    <glyph glyph-name="uniD60E" unicode="&#xd60e;" 
d="M703 584l-235 -336l-123 123q-13 13 -30 12.5t-30 -12.5q-12 -12 -12 -30t12 -30l157 -157q9 -10 22 -12q29 -7 45 17l264 376q10 15 7 32.5t-18 27.5q-13 10 -31 7t-28 -18zM511 896q-104 0 -198.5 -40.5t-163 -109t-109 -163t-40.5 -198.5t40.5 -198.5t109 -163
t163 -109t198.5 -40.5t198.5 40.5t163 109t109 163t40.5 198.5t-40.5 198.5t-109 163t-163 109t-198.5 40.5zM511 -75q-94 0 -179 36.5t-146.5 98t-98 146.5t-36.5 179t36.5 179t98 146.5t146.5 98t179 36.5t179 -36.5t146.5 -98t98 -146.5t36.5 -179t-36.5 -179t-98 -146.5
t-146.5 -98t-179 -36.5z" />
    <glyph glyph-name="uniD610" unicode="&#xd610;" 
d="M512 889q-110 0 -188 -78t-78 -187q0 -101 67.5 -176t166.5 -87v-397h64v397q99 12 166.5 87t67.5 176q0 109 -78 187t-188 78zM512 422q-83 0 -142.5 59t-59.5 142.5t59.5 142.5t142.5 59t142.5 -59t59.5 -142.5t-59.5 -142.5t-142.5 -59zM512 788q-52 0 -94.5 -30
t-60.5 -78q-3 -9 1 -17t12 -11q4 -1 7 -1q15 0 21 14q13 36 44.5 58t69.5 22q9 0 15 6.5t6 15t-6 15t-15 6.5zM616 50q28 -22 28 -49q0 -33 -38.5 -56.5t-93.5 -23.5t-93.5 23.5t-38.5 56.5q0 27 28 49q-56 -29 -56 -74q0 -40 47 -68.5t113 -28.5t113 28.5t47 68.5
q0 45 -56 74z" />
    <glyph glyph-name="uniD614" unicode="&#xd614;" 
d="M360 22q-22 0 -38 16l-305 310q-15 16 -15 38t16 37q16 16 38 16t38 -16l266 -271l571 578q15 16 37 16t38 -15.5t16 -38t-15 -37.5l-608 -617q-16 -16 -39 -16z" />
    <glyph glyph-name="uniD615" unicode="&#xd615;" 
d="M698 538l-256 -263l-116 128q-4 10 -15.5 10t-16.5 -10q-9 -5 -9 -16t9 -16l135 -141q6 -6 19 -6t19 6l275 276q5 4 5 15.5t-5 16.5q-26 9 -44 0zM845 768h-666q-19 0 -35 -16t-16 -35v-666q0 -19 16 -35t35 -16h666q19 0 35 16t16 35v666q0 19 -16 35t-35 16zM851 51
h-672v666h666v-666h6z" />
    <glyph glyph-name="uniD616" unicode="&#xd616;" 
d="M1018 506q-11 32 -39 32l-301 32l-121 275q-10 24 -42.5 24t-47.5 -24l-121 -275l-301 -32q-28 0 -39 -32q-9 -29 13 -52l224 -204l-64 -295q-8 -24 19 -51q10 -10 26 -10t26 10l262 147l262 -153q7 -7 26 -7t26 7q27 27 19 51l-64 294l224 205q21 32 13 58z" />
    <glyph glyph-name="uniD617" unicode="&#xd617;" 
d="M574 384l320 320q13 13 13 31.5t-12.5 31t-31 12.5t-31.5 -12l-320 -321l-320 321q-13 12 -31.5 12t-31 -12.5t-12.5 -31t12 -31.5l321 -320l-321 -320q-12 -13 -12 -31.5t12.5 -31t31 -12.5t31.5 13l320 320l320 -320q13 -13 31.5 -13t31 12.5t12.5 31t-12 31.5z" />
    <glyph glyph-name="uniD618" unicode="&#xd618;" 
d="M781 799h-190q0 17 -10 28.5t-24 11.5h-85q-14 0 -24 -11.5t-11 -28.5l-190 1q-31 0 -53.5 -23.5t-22.5 -56.5h687q0 32 -22.5 55.5t-54.5 23.5zM223 -23q0 -30 20 -52t48 -22h457q28 0 48 22t20 52v668h-593v-668zM661 524h85v-531h-85v531zM480 524h84v-531h-84v531z
M300 524h85v-531h-85v531z" />
    <glyph glyph-name="uniD619" unicode="&#xd619;" 
d="M512 64l512 640h-1024l256 -320z" />
    <glyph glyph-name="uniD61B" unicode="&#xd61b;" 
d="M284 482l-73 -73l260 -258l547 522l-71 74l-475 -453zM918 333q-19 -152 -135 -255t-271 -103q-111 0 -205.5 55t-149.5 149t-55 205t55 205.5t149.5 149.5t205.5 55q106 0 199 -53l75 75q-126 80 -274 80q-104 0 -199 -40.5t-163.5 -109t-109 -163.5t-40.5 -199
t40.5 -198.5t109 -163t163.5 -109t199 -40.5q130 0 242.5 60.5t183 166t83.5 233.5h-103z" />
    <glyph glyph-name="uniD61C" unicode="&#xd61c;" horiz-adv-x="1027" 
d="M1007 621q-28 84 -110 138t-171 54q-62 0 -120.5 -26t-97.5 -70q-86 96 -217 96q-91 0 -166.5 -51.5t-109.5 -134.5q-22 -65 -12 -147q9 -129 130.5 -260.5t342.5 -251.5q3 -3 13 -6.5t13 -6.5h13q19 0 32 7q6 2 31 15t67.5 39.5t90 60t97.5 80.5t90.5 97t69 113
t34.5 126q0 80 -20 128z" />
    <glyph glyph-name="uniD61D" unicode="&#xd61d;" 
d="M512 896q-104 0 -199 -40.5t-163.5 -109t-109 -163.5t-40.5 -199t40.5 -199t109 -163.5t163.5 -109t199 -40.5t199 40.5t163.5 109t109 163.5t40.5 199t-40.5 199t-109 163.5t-163.5 109t-199 40.5v0zM598 726l-25 -484h-123l-25 484h173zM509 12q-40 0 -63 25t-23 61
q0 38 24.5 62.5t62.5 24.5t62 -24.5t24 -62.5q0 -37 -24 -61.5t-63 -24.5v0zM509 12z" />
    <glyph glyph-name="uniD61F" unicode="&#xd61f;" 
d="M2 597q0 16 11 28q12 13 29.5 14t30.5 -11l439 -399l439 399q13 12 30.5 11t29.5 -14t11 -30.5t-14 -29.5l-467 -425q-13 -11 -29 -11t-29 11l-467 425q-14 13 -14 32z" />
    <glyph glyph-name="uniD620" unicode="&#xd620;" 
d="M724 894q17 0 29 -11q13 -12 14 -29.5t-11 -30.5l-399 -439l399 -439q12 -13 11 -30.5t-14 -29.5t-30.5 -11t-29.5 14l-425 467q-11 13 -11 29t11 29l425 467q13 14 31 14z" />
    <glyph glyph-name="uniD625" unicode="&#xd625;" 
d="M685 -70l109 108l-346 346l346 346l-109 108l-455 -454z" />
    <glyph glyph-name="uniD626" unicode="&#xd626;" 
d="M950 384h-210q-20 0 -26 28.5t-10.5 66t-19.5 52.5l-114 -198l170 -160l-179 -301q-7 5 -17.5 12t-27 23.5t-15.5 24.5q2 19 25.5 59t55 85.5t39.5 61.5q-140 132 -143 135l-13 8l-114 -138h-269l-30 30v30l30 30h209v-1l82 122h1l159 274q-50 24 -80 23t-53 -26
q-39 -42 -67 -60t-39 -16t-20.5 9t-12.5 7q-11 0 -10.5 22t10.5 38q1 1 2 3q7 11 13 19.5t22 26.5t33 30t45 24.5t58 15.5t71 -3.5t86 -25.5q50 -21 86 -48.5t53 -53.5t28 -51.5t15 -44t10.5 -30.5t16.5 -13q100 -10 150 -30q21 -9 22 -26t-22 -34zM755 685q-43 0 -74 31
t-31 74.5t31 74.5t74 31t74 -31t31 -74.5t-31 -74.5t-74 -31z" />
    <glyph glyph-name="uniD628" unicode="&#xd628;" 
d="M299 -126q-16 0 -28 11q-13 12 -14 29.5t11 30.5l399 439l-399 439q-12 13 -11 30.5t14 29.5t30.5 11t29.5 -14l425 -467q11 -13 11 -29t-11 -29l-425 -467q-13 -14 -32 -14z" />
    <glyph glyph-name="uniD629" unicode="&#xd629;" 
d="M1022 171q0 -16 -11 -28q-12 -13 -29.5 -14t-30.5 11l-439 399l-439 -399q-13 -12 -30.5 -11t-29.5 14t-11 30.5t14 29.5l467 425q13 11 29 11t29 -11l467 -425q14 -13 14 -32z" />
    <glyph glyph-name="uniD62B" unicode="&#xd62b;" 
d="M339 838l-109 -108l346 -346l-346 -346l109 -108l455 454z" />
    <glyph glyph-name="uniD62D" unicode="&#xd62d;" 
d="M512 896q-55 0 -98.5 -2t-89.5 -7.5t-80.5 -15.5t-66 -26.5t-51 -39t-31.5 -54.5t-12 -73v-512q0 -76 54.5 -130.5t131.5 -54.5l-77 -83v-26h640v26l-83 83q77 0 131 54.5t54 130.5v512q2 41 -9 73t-30 54.5t-50 39t-65 26.5t-80 15.5t-89.5 7.5t-98.5 2zM269 90
q-33 0 -55 24.5t-22 58.5q0 33 25 58t58.5 25t58 -25t24.5 -58q-4 -34 -30 -58.5t-59 -24.5zM461 410h-269v268h269v-268zM755 90q-33 0 -58 24.5t-25 58t25 58.5t58.5 25t58 -25t24.5 -58q-5 -35 -27.5 -59t-55.5 -24zM832 410h-269v268h269v-268z" />
    <glyph glyph-name="uniD62E" unicode="&#xd62e;" 
d="M251 384q0 -108 76.5 -184.5t184.5 -76.5t184.5 76.5t76.5 184.5t-76.5 184.5t-184.5 76.5t-184.5 -76.5t-76.5 -184.5z" />
    <glyph glyph-name="uniD631" unicode="&#xd631;" 
d="M469 408h-422v-103h422v-392h104v392h404v103h-404v436h-104v-436z" />
    <glyph glyph-name="uniD633" unicode="&#xd633;" 
d="M1007 -36l-242 240q93 118 93 264q0 116 -57.5 214.5t-156 156t-215 57.5t-215 -57.5t-156 -156t-57.5 -215t57.5 -215t156 -156t214.5 -57.5q143 0 259 89l243 -240q16 -16 38 -16t38 16t16 38t-16 38zM109 468q0 87 43 160.5t116.5 116.5t160.5 43t161 -43t117 -116.5
t43 -160.5t-43 -161t-117 -117t-161 -43t-160.5 43t-116.5 117t-43 161z" />
    <glyph glyph-name="uniD634" unicode="&#xd634;" 
d="M45 339h819l-371 -371q-15 -14 -15 -32t14.5 -32t32 -14t32.5 14l448 448q14 14 14 32t-14 32l-448 448q-13 13 -32 13t-32 -13q-15 -14 -15 -32t15 -32l371 -371h-819q-19 0 -32 -13t-13 -32t13 -32t32 -13zM45 339z" />
    <glyph glyph-name="uniD63F" unicode="&#xd63f;" 
d="M410 570v-698h204v698h205l-307 326l-307 -326h205z" />
    <glyph glyph-name="uniD640" unicode="&#xd640;" 
d="M724 -66q-70 0 -186 71q-109 68 -214 169v1l-21 21q-102 104 -170 214q-71 115 -71 186q0 68 64 153q11 16 25.5 32t40 34.5t45.5 18.5q26 0 63 -39q28 -28 59 -73q30 -42 50 -81q24 -45 24 -66q0 -29 -30 -49q-13 -10 -43 -23q-26 -11 -33 -16q6 -22 37 -68
q38 -56 82 -101q46 -44 101 -82q47 -32 68 -37q5 6 16 33q14 30 23 43q20 30 49 30q22 0 66 -24q39 -20 81 -50q45 -31 73 -59q39 -37 39 -63q0 -20 -18.5 -46t-34.5 -40t-32 -26q-85 -63 -153 -63v0zM361 212q100 -97 205 -162q103 -63 158 -63q50 0 119 51q30 22 49 44
q14 17 17 26q-5 9 -28.5 31.5t-65.5 51.5q-38 26 -71 43q-28 15 -41 17q-3 -2 -8 -10q-5 -9 -15 -30q-11 -27 -19 -38q-17 -27 -43 -27h-1q-32 0 -100 46q-59 41 -108 88l-1 1q-47 48 -88 108q-46 68 -46 100q-1 26 26 44q12 7 39 19q21 9 30 15q8 4 11 8q-2 11 -18 41
q-17 33 -43 71q-29 42 -51.5 65.5t-31.5 28.5q-9 -3 -26 -17q-22 -19 -44 -49q-51 -69 -51 -119q0 -55 63 -158q65 -104 162 -205z" />
    <glyph glyph-name="uniD641" unicode="&#xd641;" 
d="M41 436h942v-104h-942v104z" />
    <glyph glyph-name="uniD643" unicode="&#xd643;" 
d="M979 429h-819l371 371q15 14 15 32t-14.5 32t-32 14t-32.5 -14l-448 -448q-14 -14 -14 -32t14 -32l448 -448q13 -13 32 -13t32 13q15 14 15 32t-15 32l-371 371h819q19 0 32 13t13 32t-13 32t-32 13z" />
    <glyph glyph-name="uniD644" unicode="&#xd644;" 
d="M512 -45q-10 0 -22 4t-16 9q-220 119 -339 250.5t-129 261.5q-8 74 13 147q34 83 109.5 134.5t165.5 51.5q62 0 120.5 -26t97.5 -70q86 96 218 96q91 0 166 -53t109 -139q21 -64 13 -147q-6 -59 -35 -119t-67.5 -107.5t-91.5 -94.5t-95.5 -77.5t-90 -60t-65 -38.5
t-29.5 -15q-13 -7 -32 -7zM294 749q-72 0 -129.5 -40t-81.5 -107q-21 -54 -13 -122q10 -116 120.5 -233.5t315.5 -227.5h6q2 0 25.5 12.5t61.5 36t83 54.5t91.5 72t85 85t65 97t30.5 104q9 72 -13 115q-24 67 -81.5 107t-129.5 40q-59 0 -111.5 -27.5t-80.5 -74.5l-26 -38
l-26 44q-33 49 -83.5 76t-108.5 27z" />
    <glyph glyph-name="uniD645" unicode="&#xd645;" 
d="M135 -7q74 -68 136.5 -99t119.5 -9q68 26 176.5 131t180.5 226q73 122 116 264.5t37 214.5q-2 30 -20 56t-50.5 47.5t-67 37.5t-79.5 31q-9 5 -22 1.5t-22 -13.5v-7l-90 -229q-4 -10 -0.5 -22t13.5 -17h6v0q10 -3 23 -6t22 -7q2 0 26.5 -7t45 -11t43.5 -7
q5 -46 -17 -111.5t-72 -143.5q-45 -77 -94 -127t-91 -71q-39 57 -71 89l-32 32v0h-6q-26 13 -45 -6l-159 -186l-7 -6q-9 -10 -9 -22.5t9 -22.5z" />
    <glyph glyph-name="uniD646" unicode="&#xd646;" 
d="M512 896q-138 0 -256 -69t-187 -187t-69 -256t69 -256t187 -187t256 -69t256 69t187 187t69 256t-69 256t-187 187t-256 69zM819 512l-358 -358q-13 -13 -32 -13q-13 -7 -32 13l-186 185q-25 26 0 64q15 15 32.5 15t31.5 -15l154 -153l326 326q15 14 32.5 14t32 -14
t14.5 -32t-15 -32z" />
    <glyph glyph-name="uniD648" unicode="&#xd648;" 
d="M512 896q-138 0 -256 -69t-187 -187t-69 -256t69 -256t187 -187t256 -69t256 69t187 187t69 256t-69 256t-187 187t-256 69zM755 205q15 -15 15 -32.5t-15 -31.5q-13 -13 -32 -13q-6 0 -10 1.5t-11.5 5.5t-10.5 6l-179 179l-179 -179q-4 -2 -9 -5l-8 -4q-2 -2 -6.5 -3
t-8.5 -1q-6 0 -10.5 1.5t-11.5 5.5t-10 6q-15 14 -15 31.5t15 32.5l179 179l-179 179q-15 15 -15 32.5t14.5 32t32 14.5t32.5 -15l179 -179l179 179q15 15 32.5 15t32 -14.5t14.5 -32t-15 -32.5l-179 -179z" />
    <glyph glyph-name="uniD649" unicode="&#xd649;" 
d="M966 805q-12 26 -41 26h-826q-29 0 -41.5 -26t6.5 -48l392 -458v-292l114 -70v365l390 455q19 22 6 48zM699 586l-304 -72l-199 228h642z" />
    <glyph glyph-name="uniD64A" unicode="&#xd64a;" 
d="M512 896q-104 0 -199 -40.5t-163.5 -109t-109 -163.5t-40.5 -199t40.5 -199t109 -163.5t163.5 -109t199 -40.5t199 40.5t163.5 109t109 163.5t40.5 199t-40.5 199t-109 163.5t-163.5 109t-199 40.5zM512 -67q-92 0 -175 36t-143.5 96.5t-96.5 143.5t-36 174.5t36 175
t96.5 144t143.5 96t175 35.5t175 -35.5t143.5 -96t96 -144t35.5 -175t-35.5 -174.5t-96 -143.5t-143.5 -96.5t-175 -36zM693 125q-16 0 -27 11l-194 194q-11 11 -11 27v337q0 15 11.5 26.5t27 11.5t26.5 -11.5t11 -26.5v-321l183 -183q11 -11 11 -27t-11 -27t-27 -11z" />
    <glyph glyph-name="uniD64F" unicode="&#xd64f;" 
d="M838 250l-300 320q-26 12 -45 -7l-301 -320q-5 -5 -8 -15.5t2 -16.5q0 -1 5.5 -7t9.5 -9t10 -3h602q22 0 32 19q6 13 -7 39z" />
    <glyph glyph-name="uniD651" unicode="&#xd651;" horiz-adv-x="1031" 
d="M954 896h-884q-28 0 -49 -21t-21 -49v-890q0 -25 21 -44.5t49 -19.5h890q29 0 49.5 21t20.5 49v884q-4 29 -26 49.5t-50 20.5zM960 -58l-890 -6q-4 0 -5 1t-1 5v884q0 4 1 5t5 1h890v-6v-884z" />
    <glyph glyph-name="uniD652" unicode="&#xd652;" 
d="M915 275q-44 0 -76.5 31t-32.5 78q0 48 30.5 78.5t78.5 30.5q45 0 77 -31t32 -78q0 -48 -30.5 -78.5t-78.5 -30.5zM506 275q-45 0 -77 31t-32 78q0 48 30.5 78.5t78.5 30.5t78 -30.5t30 -78.5q0 -44 -30.5 -76.5t-77.5 -32.5zM109 275q-47 0 -78 32.5t-31 76.5t31 76.5
t78 32.5q48 0 78.5 -30.5t30.5 -78.5q0 -47 -32.5 -78t-76.5 -31z" />
    <glyph glyph-name="uniD654" unicode="&#xd654;" 
d="M1024 384l-257 -239l-46 49l129 146h-850v88h850l-129 146l46 49z" />
    <glyph glyph-name="uniD664" unicode="&#xd664;" 
d="M960 672h-192v13q0 39 -22.5 64t-60.5 25h-346q-38 0 -60.5 -25t-22.5 -64v-7h-192q-24 0 -41 -16.5t-17 -40.5v-570q0 -24 17 -40.5t41 -16.5h896q24 0 41 16.5t17 40.5v563q0 24 -17 41t-41 17zM512 83q-110 0 -186 76t-76 186.5t76 186.5t186 76t186 -76t76 -186.5
t-76 -186.5t-186 -76zM333 346q0 75 53 127t126 52q72 0 125.5 -53.5t53.5 -125.5q0 -74 -52 -130t-127 -56q-76 0 -127.5 54t-51.5 132v0z" />
    <glyph glyph-name="uniD702" unicode="&#xd702;" 
d="M723 871l-172 -35q-3 17 -14 27t-24 7l-78 -16q-12 -2 -19.5 -16t-4.5 -31l-173 -35q-29 -6 -45.5 -34t-10.5 -62l624 128q-5 33 -29.5 53t-53.5 14zM219 -53q0 -32 18.5 -55t44.5 -23h422q26 0 44.5 23t18.5 55v697h-548v-697zM624 518h78v-555h-78v555zM457 518h78
v-555h-78v555zM290 518h79v-555h-79v555z" />
  </font>
</defs>
</svg>
